<svg xmlns="http://www.w3.org/2000/svg" xmlns:xlink="http://www.w3.org/1999/xlink" width="1920" height="1080" viewBox="0 0 1920 1080"><defs><style>.cls-1{fill:#c46715;}.cls-2{fill:#7f4e24;}.cls-3{fill:#e97e07;}.cls-4{fill:#7d2e10;}.cls-5{fill:#f59f34;}.cls-6{fill:#422918;}.cls-7{fill:#5c220d;}.cls-8{fill:url(#Ikke-navngivet_forløb_15);}.cls-23,.cls-9{fill:#fff;}.cls-10{fill:url(#Ikke-navngivet_forløb_23);}.cls-11{fill:#084f3f;}.cls-12{fill:#51a069;}.cls-13{fill:#419535;}.cls-14{fill:#5baa31;}.cls-15{fill:#ca9e65;}.cls-16{fill:#063;}.cls-17{fill:#916131;}.cls-18{fill:#284d22;}.cls-19{fill:#438c34;}.cls-20{fill:#33682c;}.cls-21{fill:#a9c341;}.cls-22,.cls-37,.cls-38{fill:#1d1d1b;}.cls-23{stroke:#1d1d1b;stroke-miterlimit:10;}.cls-24{fill:#866f18;}.cls-25{fill:#af6616;}.cls-26{fill:#e6b810;}.cls-27{fill:#feed4d;}.cls-28{fill:#fbbc48;}.cls-29{fill:#fcf3a2;}.cls-30{fill:#010101;}.cls-31{fill:#b4b4b4;}.cls-32{fill:#808181;}.cls-33{fill:#e94e1b;}.cls-34{fill:#936037;}.cls-35{fill:#ca9e67;}.cls-36{fill:#fff9c3;}.cls-37{opacity:0.61;}.cls-38{opacity:0.83;}.cls-39{fill:#7d4e24;}.cls-40{fill:#b17f4a;}.cls-41{opacity:0.48;}</style><linearGradient id="Ikke-navngivet_forløb_15" x1="960" y1="1080" x2="960" gradientUnits="userSpaceOnUse"><stop offset="0" stop-color="#8fd0d5"/><stop offset="0.44" stop-color="#73b4d0"/><stop offset="1" stop-color="#498bc8"/></linearGradient><linearGradient id="Ikke-navngivet_forløb_23" x1="960" y1="1080" x2="960" y2="700.35" gradientUnits="userSpaceOnUse"><stop offset="0" stop-color="#5baa31"/><stop offset="0.2" stop-color="#57a632"/><stop offset="0.42" stop-color="#4c9934"/><stop offset="0.63" stop-color="#398437"/><stop offset="0.85" stop-color="#1e673b"/><stop offset="1" stop-color="#084f3f"/></linearGradient></defs><g id="Lag_4" data-name="Lag 4"><rect class="cls-1" x="651.63" y="237.79" width="644.92" height="924.92" rx="16.26" transform="translate(1674.34 -273.83) rotate(90)"/><rect class="cls-2" x="714.09" y="299.45" width="509.43" height="798.39" rx="13.43" transform="translate(1667.44 -270.16) rotate(90)"/><path class="cls-3" d="M1433.09,383.12l-9.37,9.38-.89,611.79-911.21,1.21s-1.11,19,22,16.26l888.77-.14s12.44-2.46,14.08-14.07l.13-615.86S1435.67,385.7,1433.09,383.12Z"/><path class="cls-4" d="M1423.72,377.21a17.3,17.3,0,0,1,9.37,5.91l-9.37,9.38-887.84-.72H524l-7.51-10.28s4.74-4.66,10.19-4.66Z"/><path class="cls-5" d="M1365.17,943.12a3.64,3.64,0,0,1,3.69,3.64h0c0,7.84-4.58,11.11-10.28,11.17L567.22,966.2a3.63,3.63,0,0,1-3.68-3.63l-1.07-499.08c0-10.45,14.17-19.43,18.65-19.43l1.11-.11-.13,10.64a3.67,3.67,0,0,1-2.94,3.5c-4.72,1.08-8.69,4.64-8.69,8.31V944.48c1.08,4.55,7,8.84,11.51,8.84Z"/><path class="cls-6" d="M585.2,443.93l768.94,0c.83,0,5-.13,7.42,1.95l1.51,1.09a1.07,1.07,0,0,1,.16.14l1.14,1.15c3,2.81,4.09,7.4,4.24,8a.59.59,0,0,1,0,.14c0,.37.23,2.19.23,2.84V940a3.14,3.14,0,0,1-3.09,3.14h0a3.13,3.13,0,0,1-3.18-3.1l-6.14-479.18a3.14,3.14,0,0,0-3.14-3.1H585.2a3.13,3.13,0,0,1-3.14-3.13v-6.9C582.06,443.32,581.34,444,585.2,443.93Z"/><path class="cls-7" d="M516.52,381.5,524,391.78l3.2,613.7L518,1019l-1.32-1a14.13,14.13,0,0,1-2.12-2.25,22.4,22.4,0,0,1-2.14-4.3c-.16-.45-.65-3-.7-3.45l-.13-2.5.06-613.72S512.15,384.58,516.52,381.5Z"/><polygon class="cls-4" points="1232.57 944.95 1236.38 959.21 1240.18 1004.54 1230.49 1021.65 1233.61 1004.41 1232.57 944.95"/><polygon class="cls-4" points="935.22 376.84 939.03 391.1 942.83 436.43 933.14 453.55 936.25 436.3 935.22 376.84"/><polygon class="cls-4" points="1370.08 383.12 1373.88 397.38 1377.68 442.71 1368 459.83 1371.11 442.58 1370.08 383.12"/><polygon class="cls-5" points="935.49 392.1 918.82 392.1 931.27 397.31 933.14 443.93 933.14 453.55 936.25 436.3 935.49 392.1"/><polygon class="cls-4" points="710.35 948.84 714.15 963.1 717.96 1008.43 708.27 1025.55 711.38 1008.3 710.35 948.84"/><polygon class="cls-5" points="710.62 964.1 693.94 964.1 706.4 969.31 708.27 1015.93 708.27 1025.55 711.38 1008.3 710.62 964.1"/><polygon class="cls-4" points="520.75 498.2 529.84 495.78 558.7 493.36 569.61 499.53 558.62 497.55 520.75 498.2"/><polygon class="cls-5" points="530.47 498.03 530.47 508.65 533.79 500.72 563.48 499.53 569.61 499.53 558.62 497.55 530.47 498.03"/><polygon class="cls-5" points="1370.22 392.5 1353.55 392.5 1366 397.71 1367.87 444.32 1367.87 453.94 1370.98 436.7 1370.22 392.5"/><path class="cls-5" d="M1232.82,959.25l-17.15.18,8,3.77a8.6,8.6,0,0,1,4.94,7.44l1.66,41.4v9.61l3.11-17.24Z"/><path class="cls-4" d="M940,962.84c-5.64,20.73-24.9,76-55.12,3.27-.26-.63-.54-3.22,1-.5,9.22,16.53,29.16,60.94,53.15-3.12A.53.53,0,0,1,940,962.84Z"/><path class="cls-4" d="M928.89,965c-4.26,12.5-16,38.66-30.5.63a.45.45,0,0,1,.82-.39c5.41,9.48,16.58,22.67,28.87-.58A.44.44,0,0,1,928.89,965Z"/><path class="cls-4" d="M1210.63,392.76c-5.64,20.73-12.48,61.28-62.47,1.58-.43-.52.95-2.25,1.93-1.84,13.24,5.54,36,64.38,60,.33C1210.34,392.21,1210.8,392.12,1210.63,392.76Z"/><path class="cls-4" d="M1200,393.32c-4.26,12.5-16,38.66-30.49.63a.46.46,0,0,1,.82-.39c5.4,9.49,14.42,34.6,28.86-.58C1199.38,392.48,1200.16,392.81,1200,393.32Z"/><path class="cls-4" d="M1366.71,546.27c20.73-5.64,76-24.9,3.27-55.13-.63-.26-3.22-.54-.5,1,16.53,9.22,60.94,29.16-3.12,53.14A.54.54,0,0,0,1366.71,546.27Z"/><path class="cls-4" d="M1368.82,535.16c12.5-4.26,38.66-16,.63-30.5a.46.46,0,0,0-.39.82c9.48,5.4,22.67,16.58-.58,28.87A.44.44,0,0,0,1368.82,535.16Z"/><path class="cls-4" d="M527.25,1004.34c3.57-10.48,13.43-32.41,25.57-.53a.38.38,0,0,1-.69.33c-4.53-7.95-13.9-19-24.2.48A.37.37,0,0,1,527.25,1004.34Z"/><path class="cls-4" d="M526.14,718.87c17.38,4.73,63.73,20.88,2.74,46.22-.53.22-2.7.45-.42-.82,13.86-7.73,51.09-24.44-2.61-44.55A.45.45,0,0,1,526.14,718.87Z"/><path class="cls-4" d="M527.91,728.19c10.48,3.57,32.41,13.43.53,25.57a.38.38,0,0,1-.33-.69c7.95-4.53,19-13.9-.48-24.2A.37.37,0,0,1,527.91,728.19Z"/><path class="cls-4" d="M1184.73,392.37c-1.78,0-3.23-.59-3.23,2.14s1.45,4.93,3.23,4.93,2.22-1.2,2.22-3.93S1186.51,392.37,1184.73,392.37Z"/><ellipse class="cls-4" cx="539.36" cy="625.97" rx="3.12" ry="41.16"/><ellipse class="cls-4" cx="767.99" cy="420.67" rx="65.38" ry="2.16"/><polygon class="cls-4" points="1110.58 946.64 1128.56 960.34 1141.01 1004.67 1104.23 1021.65 1123.37 1002.51 1110.58 946.64"/><polygon class="cls-5" points="1110.58 946.64 1123.37 1002.51 1104.23 1021.65 1102.96 1009.83 1117.26 1000.37 1110.58 946.64"/><polygon class="cls-4" points="862.59 375.16 875.64 387.72 884.67 428.33 857.99 443.9 871.87 426.36 862.59 375.16"/><polygon class="cls-5" points="862.59 375.16 871.87 426.36 857.99 443.9 857.07 433.06 867.44 424.4 862.59 375.16"/><polygon class="cls-4" points="533.65 775.75 542.49 804.81 563.32 858.54 567.44 887.49 559.92 867.77 526.67 897.26 546.44 864.94 533.65 775.75"/><polygon class="cls-5" points="533.65 775.75 546.44 864.94 526.67 897.26 526.56 876.62 540.33 861.53 533.65 775.75"/><polygon class="cls-4" points="611.41 378.23 629.39 390.22 629.51 429.03 605.06 443.9 624.2 427.14 611.41 378.23"/><polygon class="cls-5" points="611.41 378.23 624.2 427.14 605.06 443.9 603.79 433.55 618.09 425.27 611.41 378.23"/><path class="cls-4" d="M1103,394.7l-.6,1.36c-1.8,4.08-7.1,16.51-8.62,24.32-1.85,9.45-3.23,23.06-3.23,23.06l-3.92.46,8.18-34.59"/><path class="cls-4" d="M808.75,999s.21-.5.55-1.38c1.63-4.16,6.4-16.79,7.6-24.66,1.45-9.52,2.27-23.17,2.27-23.17l3.9-.62L816.33,984"/><path class="cls-4" d="M1405.37,798.23s0-.94-.17-2.58c-.58-7.78-2.58-31.3-6.64-44.59-4.92-16.08-9.87-45.18-9.87-45.18l1.6,3,15.77,60"/><path class="cls-4" d="M1368,887.07l1.54.69c4.65,2.07,18.79,8.15,27.68,9.9,10.77,2.12,26.26,3.7,26.26,3.7l.52,4.5-39.38-9.39"/><polygon class="cls-4" points="1335.31 974.07 1326.55 963.52 1320.81 951.02 1318.9 943.74 1316.51 951.06 1323.36 965.25 1335.31 974.07"/><polygon class="cls-5" points="1316.51 951.06 1321.47 966.24 1335.31 974.07 1323.36 965.25 1316.51 951.06"/><polygon class="cls-4" points="1002.29 1006.68 993.53 984.08 990.93 959.91 991.82 946.64 983.72 957.56 987.22 985.2 1002.29 1006.68"/><polygon class="cls-5" points="983.72 957.56 983.5 985.79 1002.29 1006.68 987.22 985.2 983.72 957.56"/><polygon class="cls-4" points="547.98 585.36 547.88 561.13 554.1 537.63 559.68 525.55 548.21 532.85 541.59 559.91 547.98 585.36"/><polygon class="cls-5" points="548.21 532.85 537.9 559.13 547.98 585.36 541.59 559.91 548.21 532.85"/><polygon class="cls-4" points="620.67 1012.02 620.58 987.79 626.8 964.29 632.38 952.21 620.9 959.51 614.29 986.57 620.67 1012.02"/><polygon class="cls-5" points="620.9 959.51 610.6 985.79 620.67 1012.02 614.29 986.57 620.9 959.51"/><polygon class="cls-4" points="1030.57 449.21 1030.48 424.97 1036.69 401.48 1042.28 389.39 1030.8 396.69 1024.18 423.75 1030.57 449.21"/><polygon class="cls-5" points="1030.8 396.69 1020.5 422.98 1030.57 449.21 1024.18 423.75 1030.8 396.69"/><polygon class="cls-4" points="1274.98 443.95 1275.57 424.08 1279.66 401.91 1283.08 389.42 1276.5 400.7 1272.1 425.99 1274.98 443.95"/><polygon class="cls-5" points="1276.5 400.7 1270.07 427.05 1274.98 443.95 1272.1 425.99 1276.5 400.7"/><path class="cls-5" d="M1422.89,960.25s2-17.1,2-5.11,5.22,49.5,1.88,52.84-4.62,1.38-6.23-1.15S1422.89,960.25,1422.89,960.25Z"/><path class="cls-4" d="M1423.51,1009.74s-3,1.39-3.93.42-2.42-9.73-2.42-9.73l5.73-40.7s-2.55,31.92-2.14,38.51A31.25,31.25,0,0,0,1423.51,1009.74Z"/><rect class="cls-8" width="1920" height="1080"/><circle class="cls-9" cx="1702.04" cy="67.51" r="74.85"/><circle class="cls-9" cx="1702.04" cy="172.73" r="67.01"/><circle class="cls-9" cx="1744.06" cy="239.74" r="68.17"/><circle class="cls-9" cx="1833.12" cy="125.67" r="89.07"/><circle class="cls-9" cx="1878.21" cy="231.42" r="89.07"/><circle class="cls-9" cx="69.5" cy="113.09" r="74.85"/><circle class="cls-9" cx="137.37" cy="193.49" r="67.01"/><circle class="cls-9" cx="212.71" cy="217.59" r="68.17"/><circle class="cls-9" cx="207.19" cy="72.98" r="89.07"/><circle class="cls-9" cx="309.85" cy="124.7" r="89.07"/><circle class="cls-9" cx="443.29" cy="72.98" r="89.07"/><circle class="cls-9" cx="429.62" cy="162.05" r="62.7"/><path class="cls-10" d="M0,1080V826.5s315.21,4.12,468.4-51,609.71,15.29,609.71,15.29S1441.31,803,1635,726.45s285,39.83,285,39.83V1080Z"/><rect class="cls-1" x="695.25" y="45.79" width="540.83" height="1060.15" rx="15.94" transform="translate(1541.54 -389.8) rotate(90)"/><rect class="cls-2" x="746.01" y="116.96" width="427.21" height="915.12" rx="13.16" transform="translate(1534.13 -385.09) rotate(90)"/><path class="cls-3" d="M1491.79,309.92,1481,317.79l-1,513.05-1044.43,1s-1.27,15.9,25.16,13.64l1018.71-.12s14.27-2.06,16.14-11.8l.15-516.46S1494.74,312.09,1491.79,309.92Z"/><path class="cls-4" d="M1481,305s6.35.89,10.75,4.95L1481,317.79l-1017.65-.61H449.81l-8.6-8.62s5.43-3.9,11.67-3.9Z"/><path class="cls-5" d="M1413.94,779.54c2.32,0,4.22,1.35,4.22,3.05h0c0,6.57-5.25,9.32-11.78,9.37L499.32,798.9c-2.32,0-4.21-1.35-4.22-3l-1.23-418.53c0-8.76,16.24-16.29,21.38-16.29l1.27-.1-.15,8.93c0,1.44-1.45,2.61-3.36,2.93-5.41.91-10,3.89-10,7V780.68c1.24,3.81,8.06,7.41,13.19,7.41Z"/><path class="cls-6" d="M519.92,360.91l881.37,0c1,0,5.71-.11,8.5,1.64l1.74.91a1.88,1.88,0,0,1,.18.12l1.3,1a13.82,13.82,0,0,1,4.86,6.74.45.45,0,0,1,0,.11c0,.31.26,1.84.26,2.38V776.9c0,1.44-1.58,2.61-3.54,2.63h0c-2,0-3.62-1.14-3.65-2.6l-7-401.84c0-1.44-1.63-2.6-3.6-2.6H519.92c-2,0-3.6-1.18-3.6-2.63v-5.78C516.32,360.41,515.5,361,519.92,360.91Z"/><path class="cls-7" d="M441.21,308.56l8.6,8.62,3.67,514.65-10.55,11.36-1.51-.86a14.81,14.81,0,0,1-2.43-1.88,17.35,17.35,0,0,1-2.45-3.61,23,23,0,0,1-.8-2.89l-.15-2.1.07-514.67S436.19,311.15,441.21,308.56Z"/><polygon class="cls-4" points="1261.95 781.07 1266.31 793.03 1270.67 831.04 1259.57 845.4 1263.13 830.94 1261.95 781.07"/><polygon class="cls-4" points="921.12 304.66 925.49 316.61 929.84 354.63 918.74 368.98 922.31 354.52 921.12 304.66"/><polygon class="cls-4" points="1419.56 309.92 1423.92 321.88 1428.28 359.89 1417.17 374.25 1420.74 359.79 1419.56 309.92"/><polygon class="cls-5" points="921.43 317.45 902.32 317.45 916.59 321.82 918.74 360.91 918.74 368.98 922.31 354.52 921.43 317.45"/><polygon class="cls-4" points="663.38 784.34 667.74 796.3 672.09 834.31 660.99 848.66 664.56 834.2 663.38 784.34"/><polygon class="cls-5" points="663.68 797.13 644.57 797.13 658.84 801.5 660.99 840.6 660.99 848.66 664.56 834.2 663.68 797.13"/><polygon class="cls-4" points="446.06 406.43 456.47 404.4 489.56 402.37 502.05 407.54 489.46 405.88 446.06 406.43"/><polygon class="cls-5" points="457.2 406.29 457.2 415.19 461 408.54 495.03 407.54 502.05 407.54 489.46 405.88 457.2 406.29"/><polygon class="cls-5" points="1419.72 317.79 1400.61 317.79 1414.88 322.15 1417.03 361.25 1417.03 369.31 1420.6 354.85 1419.72 317.79"/><path class="cls-5" d="M1262.23,793.06l-19.65.15,9.22,3.17c3.33,1.14,5.51,3.55,5.66,6.23l1.91,34.72v8.07l3.57-14.46Z"/><path class="cls-4" d="M926.61,796.08c-6.47,17.38-28.55,63.74-63.19,2.73-.3-.52-.62-2.69,1.12-.41,10.56,13.86,33.42,51.1,60.91-2.61C925.71,795.27,926.8,795.54,926.61,796.08Z"/><path class="cls-4" d="M913.87,797.85c-4.88,10.48-18.36,32.42-35,.52-.23-.44.62-.74.94-.33,6.19,8,19,19,33.09-.48C913.23,797.16,914.07,797.41,913.87,797.85Z"/><path class="cls-4" d="M1236.8,318c-6.47,17.39-14.31,51.4-71.6,1.33-.5-.43,1.09-1.89,2.21-1.54,15.18,4.64,41.3,54,68.79.27C1236.47,317.54,1237,317.47,1236.8,318Z"/><path class="cls-4" d="M1224.59,318.48c-4.88,10.48-18.36,32.42-34.95.52-.23-.44.62-.74.94-.33,6.19,8,16.53,29,33.08-.48C1223.9,317.77,1224.79,318.05,1224.59,318.48Z"/><path class="cls-4" d="M1415.7,446.74c23.76-4.73,87.13-20.88,3.74-46.23-.72-.22-3.68-.45-.57.82,19,7.73,69.85,24.45-3.57,44.56C1414.59,446.09,1415,446.88,1415.7,446.74Z"/><path class="cls-4" d="M1418.12,437.42c14.32-3.57,44.31-13.43.72-25.58-.61-.16-1,.46-.45.69,10.87,4.53,26,13.9-.66,24.21C1417.18,437,1417.53,437.57,1418.12,437.42Z"/><path class="cls-4" d="M453.51,830.88c4.09-8.79,15.39-27.18,29.3-.44.19.37-.52.62-.79.27-5.19-6.67-15.93-15.93-27.74.41C454,831.46,453.34,831.24,453.51,830.88Z"/><path class="cls-4" d="M452.23,591.49c19.92,4,73,17.5,3.14,38.75-.6.19-3.09.38-.48-.68,15.88-6.48,58.56-20.5-3-37.37C451.31,592,451.62,591.36,452.23,591.49Z"/><path class="cls-4" d="M454.26,599.3c12,3,37.15,11.26.6,21.44-.5.14-.85-.38-.37-.58,9.11-3.8,21.78-11.65-.56-20.29C453.47,599.69,453.77,599.18,454.26,599.3Z"/><path class="cls-4" d="M1207.11,317.68c-2,0-3.7-.49-3.7,1.79a3.94,3.94,0,0,0,3.7,4.13c2,0,2.55-1,2.55-3.29S1209.15,317.68,1207.11,317.68Z"/><ellipse class="cls-4" cx="467.39" cy="513.57" rx="3.58" ry="34.52"/><ellipse class="cls-4" cx="729.44" cy="341.41" rx="74.94" ry="1.81"/><polygon class="cls-4" points="1122.12 782.49 1142.73 793.98 1157 831.15 1114.84 845.4 1136.78 829.35 1122.12 782.49"/><polygon class="cls-5" points="1122.12 782.49 1136.78 829.35 1114.84 845.4 1113.39 835.48 1129.78 827.55 1122.12 782.49"/><polygon class="cls-4" points="837.88 303.25 852.83 313.77 863.18 347.84 832.6 360.89 848.51 346.18 837.88 303.25"/><polygon class="cls-5" points="837.88 303.25 848.51 346.18 832.6 360.89 831.54 351.8 843.43 344.54 837.88 303.25"/><polygon class="cls-4" points="460.84 639.18 470.97 663.55 494.85 708.61 499.57 732.88 490.95 716.35 452.83 741.08 475.5 713.98 460.84 639.18"/><polygon class="cls-5" points="460.84 639.18 475.5 713.98 452.83 741.08 452.71 723.77 468.5 711.12 460.84 639.18"/><polygon class="cls-4" points="549.97 305.82 570.58 315.88 570.71 348.42 542.69 360.89 564.63 346.84 549.97 305.82"/><polygon class="cls-5" points="549.97 305.82 564.63 346.84 542.69 360.89 541.24 352.21 557.63 345.27 549.97 305.82"/><path class="cls-4" d="M1113.39,319.63l-.69,1.14c-2.06,3.43-8.14,13.84-9.89,20.39-2.11,7.93-3.7,19.34-3.7,19.34l-4.49.39,9.38-29"/><path class="cls-4" d="M776.16,826.36s.24-.42.63-1.16c1.86-3.49,7.34-14.08,8.71-20.68a194,194,0,0,0,2.6-19.43l4.47-.52-7.73,29.27"/><path class="cls-4" d="M1460,658s-.06-.79-.2-2.16c-.66-6.53-3-26.25-7.61-37.39-5.64-13.49-11.3-37.89-11.3-37.89l1.82,2.55,18.08,50.35"/><path class="cls-4" d="M1417.17,732.53s.64.22,1.77.58c5.33,1.74,21.54,6.84,31.73,8.3,12.34,1.78,30.09,3.11,30.09,3.11l.61,3.78-45.14-7.88"/><polygon class="cls-4" points="1379.7 805.49 1369.66 796.65 1363.09 786.17 1360.9 780.06 1358.16 786.2 1366.01 798.1 1379.7 805.49"/><polygon class="cls-5" points="1358.16 786.2 1363.84 798.93 1379.7 805.49 1366.01 798.1 1358.16 786.2"/><polygon class="cls-4" points="998 832.84 987.96 813.89 984.98 793.62 986 782.49 976.71 791.65 980.73 814.82 998 832.84"/><polygon class="cls-5" points="976.71 791.65 976.46 815.32 998 832.84 980.73 814.82 976.71 791.65"/><polygon class="cls-4" points="477.26 479.52 477.15 459.2 484.28 439.49 490.68 429.36 477.52 435.48 469.94 458.18 477.26 479.52"/><polygon class="cls-5" points="477.52 435.48 465.71 457.53 477.26 479.52 469.94 458.18 477.52 435.48"/><polygon class="cls-4" points="560.59 837.32 560.48 817 567.61 797.29 574 787.16 560.85 793.28 553.27 815.98 560.59 837.32"/><polygon class="cls-5" points="560.85 793.28 549.04 815.33 560.59 837.32 553.27 815.98 560.85 793.28"/><polygon class="cls-4" points="1030.42 365.34 1030.31 345.02 1037.43 325.31 1043.83 315.18 1030.67 321.3 1023.09 344 1030.42 365.34"/><polygon class="cls-5" points="1030.67 321.3 1018.86 343.35 1030.42 365.34 1023.09 344 1030.67 321.3"/><polygon class="cls-4" points="1310.56 360.93 1311.23 344.27 1315.92 325.68 1319.85 315.2 1312.3 324.66 1307.26 345.87 1310.56 360.93"/><polygon class="cls-5" points="1312.3 324.66 1304.92 346.76 1310.56 360.93 1307.26 345.87 1312.3 324.66"/><path class="cls-5" d="M1480.09,793.9s2.27-14.33,2.27-4.28,6,41.51,2.15,44.31-5.29,1.16-7.13-1S1480.09,793.9,1480.09,793.9Z"/><path class="cls-4" d="M1480.81,835.41s-3.39,1.17-4.51.35-2.77-8.16-2.77-8.16l6.56-34.13s-2.92,26.77-2.45,32.29A21.11,21.11,0,0,0,1480.81,835.41Z"/><path class="cls-6" d="M1678,767.36v15.75a1.57,1.57,0,0,0,1.55,1.37c4.79.54,19.7,1.9,30.75-.55a1.5,1.5,0,0,0,1.32-1.39l-.8-16.14a1.68,1.68,0,0,0-1.89-1.33l-29.19.9A1.62,1.62,0,0,0,1678,767.36Z"/><path class="cls-6" d="M1687.74,775.08v10.07s22.36,2.17,23.69-.58-.08-10.13-.08-10.13l-23.61.64"/><path class="cls-11" d="M1706.67,584.62c0-1.11-5-3.15-6.65-.36-17.1,29-43.55,130.91-54.55,158.77-1.43,3.61-3.44,7.07-4.92,10.67-8.67,21.07-13.06,24,51.48,21.13.2,0,.37-.13.38-.28Z"/><path class="cls-12" d="M1700,584.26l-26.18,190.88c0,.17.15.32.37.31l7.85-.21,71.8-2h.06c10.06-1.42,4.08-14.28,1.73-21.88-11.9-38.47-38.13-146.43-49-167.29C1706,582.81,1700.75,581.28,1700,584.26Z"/><path class="cls-6" d="M1790.9,760.72v25.54a2.53,2.53,0,0,0,2.51,2.23c7.77.88,31.95,3.09,49.86-.9a2.42,2.42,0,0,0,2.15-2.25l-1.29-26.16c-.06-1.24-1.44-2.21-3.07-2.16l-47.33,1.46C1792.15,758.52,1790.9,759.52,1790.9,760.72Z"/><path class="cls-6" d="M1806.7,773.25v16.33s36.26,3.52,38.41-.94-.13-16.43-.13-16.43l-38.28,1"/><path class="cls-11" d="M1837.39,464.42c0-1.81-8.11-5.12-10.78-.59-27.73,47-70.62,212.27-88.45,257.44-2.32,5.86-5.59,11.47-8,17.31-14.05,34.17-21.17,38.85,83.49,34.26a.6.6,0,0,0,.61-.46Z"/><path class="cls-12" d="M1826.61,463.83l-42.45,309.52c-.05.27.24.51.6.5l12.73-.35,116.42-3.16h.11c16.31-2.3,6.6-23.16,2.79-35.48-19.29-62.38-61.83-237.45-79.41-271.26C1836.3,461.47,1827.8,459,1826.61,463.83Z"/><path class="cls-6" d="M39.7,814.05v25.54a2.54,2.54,0,0,0,2.51,2.23c7.77.87,31.95,3.09,49.86-.9a2.42,2.42,0,0,0,2.15-2.25l-1.29-26.16c-.06-1.25-1.44-2.21-3.07-2.16L42.53,811.8C41,811.85,39.7,812.84,39.7,814.05Z"/><path class="cls-6" d="M55.5,826.58v16.33s36.26,3.52,38.41-.95-.13-16.42-.13-16.42l-38.28,1"/><path class="cls-11" d="M86.19,517.75c0-1.81-8.11-5.12-10.78-.59C47.68,564.2,4.79,729.43-13,774.6c-2.31,5.86-5.58,11.47-8,17.3-14,34.18-21.17,38.86,83.49,34.27a.6.6,0,0,0,.61-.46Z"/><path class="cls-12" d="M75.41,517.16,33,826.68c-.05.27.24.51.6.5l12.73-.35,116.42-3.17h.11c16.31-2.3,6.6-23.16,2.79-35.48C146.32,725.8,103.78,550.73,86.2,516.92,85.1,514.8,76.6,512.33,75.41,517.16Z"/><path class="cls-6" d="M211.92,770a.85.85,0,0,0-.85.85v94.3c0,.16,0,.32,0,.47s.28,1.5,6.37.51c.34,0,.27-1.1.27-1.44l-.43-93.84a.86.86,0,0,0-.86-.85Z"/><path class="cls-13" d="M213.06,771.9c-3.69,0-14.16.07-16.72-3.19-18.29-23.28-34.05-142.86,10.73-150.18,68.17-11.14,30.35,119.11,16.42,147.75a10,10,0,0,1-9,5.61Z"/><path class="cls-14" d="M203.87,619.06l1.72,152.6,2.61.23c2.7,0,9.84.29,14.75.29C261.2,772.18,280.81,600.24,203.87,619.06Z"/><path class="cls-6" d="M331.36,767.28a.54.54,0,0,0-.54.54v60.25c0,.1,0,.2,0,.3s.18,1,4.07.33c.22,0,.17-.71.17-.93l-.27-59.95a.55.55,0,0,0-.55-.54Z"/><path class="cls-13" d="M332.09,768.47c-2.36,0-9,0-10.68-2-11.69-14.88-21.75-91.28,6.86-96,43.54-7.11,19.38,76.1,10.49,94.4a6.4,6.4,0,0,1-5.74,3.59Z"/><path class="cls-14" d="M326.22,670.82l1.1,97.5,1.67.15c1.72,0,6.28.18,9.42.18C362.85,768.65,375.37,658.8,326.22,670.82Z"/><path class="cls-15" d="M37.86,821.14c-4.11-12.13,16,115.93,49,242.58C111.9,1159.73,37.86,821.14,37.86,821.14Z"/><path class="cls-15" d="M128.48,686.37c.15-19.29-28,176-50.2,369.65C61.22,1204.6,128.48,686.37,128.48,686.37Z"/><path class="cls-16" d="M96.5,1053.28s46-153.18,133.36-174C229.86,879.24,31.24,893.36,96.5,1053.28Z"/><path class="cls-14" d="M94,1099.44s14.93,1.58,17.83-6.55c13.36-37.43,43.75-150.35,115.52-167.5C227.36,925.39,69.71,889.6,94,1099.44Z"/><path class="cls-14" d="M93.87,1097.16S37,879.22-60.07,884.69C-60.07,884.69,104.61,835.57,93.87,1097.16Z"/><path class="cls-16" d="M94,1099.44S81.09,1103,78.15,1096C62.5,1058.76,19.64,934.52-41.13,947.49-41.13,947.49,133.15,911.68,94,1099.44Z"/><path class="cls-17" d="M103.26,779.36c.12,7.51.34,21.26,6.56,25.48,5.3,3.59,16.08-1.05,18.58-12.4,6.6-29.91,13.22-84.62,10-92.08s-25.34-11.44-27.43.06C106.68,724,103,761.84,103.26,779.36Z"/><path class="cls-17" d="M41.07,876.06c1.55,4.12,4.36,11.67,8.63,12.78,3.63.94,8.67-3.73,7.82-10.49C55.3,860.55,48.22,829,45,825.56S28.75,824.22,29.85,831C32.1,844.82,37.47,866.45,41.07,876.06Z"/><ellipse class="cls-18" cx="313.58" cy="965.62" rx="14.54" ry="34.27" transform="translate(-567.2 460.66) rotate(-42.18)"/><ellipse class="cls-18" cx="415.25" cy="967.27" rx="34.27" ry="14.54" transform="translate(-580.35 625.45) rotate(-47.82)"/><ellipse class="cls-19" cx="315.76" cy="988.31" rx="19.32" ry="7.86"/><ellipse class="cls-19" cx="408" cy="991.06" rx="19.32" ry="7.86"/><ellipse class="cls-20" cx="364.6" cy="972.82" rx="52.88" ry="31.24"/><ellipse class="cls-21" cx="364.6" cy="980.45" rx="32.54" ry="24.38"/><ellipse class="cls-20" cx="364.59" cy="934.56" rx="32.54" ry="12.64"/><path class="cls-19" d="M332.05,934.56s-1.22,13.63,33.18,13c33.65-.66,31.91-13,31.91-13Z"/><circle class="cls-9" cx="379.04" cy="921.92" r="12.07"/><circle class="cls-22" cx="379.04" cy="921.92" r="8.69"/><circle class="cls-23" cx="383.57" cy="918.5" r="2.07"/><circle class="cls-9" cx="351.61" cy="918.5" r="12.07"/><circle class="cls-22" cx="351.61" cy="918.5" r="8.69"/><circle class="cls-23" cx="356.14" cy="915.07" r="2.07"/><circle class="cls-19" cx="347.11" cy="995.22" r="12.03"/><circle class="cls-19" cx="382.38" cy="996.18" r="12.03"/><ellipse class="cls-18" cx="378.55" cy="1037.51" rx="14.54" ry="34.27" transform="translate(-598.64 522.9) rotate(-42.18)"/><ellipse class="cls-18" cx="480.22" cy="1039.16" rx="34.27" ry="14.54" transform="translate(-612.27 697.21) rotate(-47.82)"/><ellipse class="cls-19" cx="380.73" cy="1060.2" rx="19.32" ry="7.86"/><ellipse class="cls-19" cx="472.97" cy="1062.94" rx="19.32" ry="7.86"/><ellipse class="cls-20" cx="429.57" cy="1044.7" rx="52.88" ry="31.24"/><ellipse class="cls-21" cx="429.57" cy="1052.33" rx="32.54" ry="24.38"/><ellipse class="cls-20" cx="429.57" cy="1006.44" rx="32.54" ry="12.64"/><path class="cls-19" d="M397,1006.44s-1.22,13.64,33.18,13c33.65-.67,31.91-13,31.91-13Z"/><circle class="cls-9" cx="444.02" cy="993.8" r="12.07"/><circle class="cls-22" cx="444.02" cy="993.8" r="8.69"/><circle class="cls-23" cx="448.55" cy="990.38" r="2.07"/><circle class="cls-9" cx="416.58" cy="990.38" r="12.07"/><circle class="cls-22" cx="416.58" cy="990.38" r="8.69"/><circle class="cls-23" cx="421.12" cy="986.96" r="2.07"/><circle class="cls-19" cx="412.08" cy="1067.11" r="12.03"/><circle class="cls-19" cx="447.35" cy="1068.06" r="12.03"/><ellipse class="cls-24" cx="483.61" cy="1038.1" rx="17.27" ry="40.72" transform="translate(-571.83 593.61) rotate(-42.18)"/><ellipse class="cls-24" cx="604.42" cy="1040.06" rx="40.72" ry="17.27" transform="translate(-572.14 789.54) rotate(-47.82)"/><ellipse class="cls-25" cx="486.2" cy="1065.06" rx="22.96" ry="9.34"/><ellipse class="cls-25" cx="595.81" cy="1068.32" rx="22.96" ry="9.34"/><ellipse class="cls-26" cx="544.24" cy="1046.65" rx="62.84" ry="37.12"/><ellipse class="cls-21" cx="544.24" cy="1055.72" rx="38.67" ry="28.97"/><ellipse class="cls-26" cx="544.23" cy="1001.19" rx="38.67" ry="15.02"/><path class="cls-24" d="M505.56,1001.19s-1.45,16.2,39.43,15.39c40-.79,37.91-15.39,37.91-15.39Z"/><circle class="cls-9" cx="561.4" cy="986.17" r="14.34"/><circle class="cls-22" cx="561.4" cy="986.17" r="10.33"/><circle class="cls-23" cx="566.79" cy="982.1" r="2.46"/><circle class="cls-9" cx="528.81" cy="982.1" r="14.34"/><circle class="cls-22" cx="528.81" cy="982.1" r="10.33"/><circle class="cls-23" cx="534.19" cy="978.04" r="2.46"/><circle class="cls-25" cx="523.45" cy="1073.27" r="14.3"/><circle class="cls-25" cx="565.37" cy="1074.41" r="14.3"/><path class="cls-26" d="M514.46,980.49s1.8-13.67,14.34-13.28c15.28.48,14.35,14.89,14.35,14.89Z"/><path class="cls-26" d="M547.05,983.88s1.8-13.68,14.34-13.29c15.28.48,14.35,14.9,14.35,14.9Z"/><ellipse class="cls-24" cx="186.15" cy="1000.53" rx="17.27" ry="40.72" transform="translate(-623.64 384.13) rotate(-42.18)"/><ellipse class="cls-24" cx="306.96" cy="1002.49" rx="40.72" ry="17.27" transform="translate(-642.01 556.78) rotate(-47.82)"/><ellipse class="cls-25" cx="188.74" cy="1027.49" rx="22.96" ry="9.34"/><ellipse class="cls-25" cx="298.35" cy="1030.75" rx="22.96" ry="9.34"/><ellipse class="cls-26" cx="246.78" cy="1009.08" rx="62.84" ry="37.12"/><ellipse class="cls-21" cx="246.78" cy="1018.15" rx="38.67" ry="28.97"/><ellipse class="cls-26" cx="246.77" cy="963.61" rx="38.67" ry="15.02"/><path class="cls-24" d="M208.1,963.61s-1.45,16.21,39.43,15.4c40-.79,37.91-15.4,37.91-15.4Z"/><circle class="cls-9" cx="263.94" cy="948.6" r="14.34"/><circle class="cls-22" cx="263.94" cy="948.6" r="10.33"/><circle class="cls-23" cx="269.33" cy="944.53" r="2.46"/><circle class="cls-9" cx="231.35" cy="944.53" r="14.34"/><circle class="cls-22" cx="231.35" cy="944.53" r="10.33"/><circle class="cls-23" cx="236.73" cy="940.47" r="2.46"/><circle class="cls-25" cx="225.99" cy="1035.7" r="14.3"/><circle class="cls-25" cx="267.91" cy="1036.84" r="14.3"/><path class="cls-26" d="M217,942.92s1.8-13.67,14.34-13.28c15.28.48,14.35,14.89,14.35,14.89Z"/><path class="cls-26" d="M249.59,946.31s1.8-13.68,14.34-13.29c15.28.48,14.35,14.9,14.35,14.9Z"/><ellipse class="cls-18" cx="146.66" cy="1058.26" rx="14.54" ry="34.27" transform="translate(-672.64 372.57) rotate(-42.18)"/><ellipse class="cls-18" cx="248.33" cy="1059.91" rx="34.27" ry="14.54" transform="translate(-703.82 532.2) rotate(-47.82)"/><ellipse class="cls-19" cx="148.85" cy="1080.95" rx="19.32" ry="7.86"/><ellipse class="cls-19" cx="241.09" cy="1083.7" rx="19.32" ry="7.86"/><ellipse class="cls-20" cx="197.69" cy="1065.46" rx="52.88" ry="31.24"/><ellipse class="cls-21" cx="197.69" cy="1073.09" rx="32.54" ry="24.38"/><ellipse class="cls-20" cx="197.68" cy="1027.2" rx="32.54" ry="12.64"/><path class="cls-19" d="M165.14,1027.2s-1.22,13.63,33.17,13c33.66-.66,31.91-13,31.91-13Z"/><circle class="cls-9" cx="212.13" cy="1014.56" r="12.07"/><circle class="cls-22" cx="212.13" cy="1014.56" r="8.69"/><circle class="cls-23" cx="216.66" cy="1011.14" r="2.07"/><circle class="cls-9" cx="184.7" cy="1011.14" r="12.07"/><circle class="cls-22" cx="184.7" cy="1011.14" r="8.69"/><circle class="cls-23" cx="189.23" cy="1007.71" r="2.07"/><circle class="cls-19" cx="180.19" cy="1087.86" r="12.03"/><circle class="cls-19" cx="215.47" cy="1088.82" r="12.03"/><ellipse class="cls-18" cx="498.37" cy="289.91" rx="11.04" ry="26.02" transform="translate(-65.6 409.74) rotate(-42.18)"/><ellipse class="cls-18" cx="575.56" cy="291.16" rx="26.02" ry="11.04" transform="translate(-26.68 522.14) rotate(-47.82)"/><ellipse class="cls-19" cx="500.03" cy="307.13" rx="14.67" ry="5.97"/><ellipse class="cls-19" cx="570.06" cy="309.21" rx="14.67" ry="5.97"/><ellipse class="cls-20" cx="537.11" cy="295.37" rx="40.14" ry="23.72"/><ellipse class="cls-21" cx="537.11" cy="301.16" rx="24.7" ry="18.51"/><ellipse class="cls-20" cx="537.1" cy="266.32" rx="24.7" ry="9.59"/><path class="cls-19" d="M512.4,266.32s-.93,10.36,25.18,9.84c25.55-.51,24.23-9.84,24.23-9.84Z"/><circle class="cls-9" cx="548.07" cy="256.73" r="9.16"/><circle class="cls-22" cx="548.07" cy="256.73" r="6.6"/><circle class="cls-23" cx="551.51" cy="254.13" r="1.57"/><circle class="cls-9" cx="527.25" cy="254.13" r="9.16"/><circle class="cls-22" cx="527.25" cy="254.13" r="6.6"/><circle class="cls-23" cx="530.69" cy="251.54" r="1.57"/><circle class="cls-19" cx="523.83" cy="312.38" r="9.13"/><circle class="cls-19" cx="550.61" cy="313.1" r="9.13"/><polygon class="cls-27" points="1408.27 569.2 1481.72 550.12 1483.74 568.78 1408.27 569.2"/><polygon class="cls-28" points="1482.75 559.66 1408.27 569.2 1483.74 568.78 1482.75 559.66"/><path class="cls-9" d="M1535.1,573a27.54,27.54,0,0,0-9.64-.29c-2.48.26-10.61,1.28-15,1.52-.25,0-.48,0-.72.06-1.25.14-6.54.54-15-1.33-9.8-2.15-11-4.13-11-4.13l-2-18.66s8.55-31,62.28-24.5c24.33,3,41.8,36.16,34.24,49.47a125.6,125.6,0,0,1-35.7-.89l-1.52-.39"/><path class="cls-9" d="M1578.67,574.2s-30.32,63.38-37,77.15c-11.63,23.86-4.83,54.94,14.56,74.33s-21.62,73.46-21.62,73.46-44.42-103.24-23.44-150.36c12.68-28.49,46.69-56.77,28.26-75.2-.15-.15-.59-.4-.38-.4Z"/><path class="cls-9" d="M1560.82,730.3s25.93-34.23,86-7.54,104.25,146.79,128.44,253.54c0,0,12.51,30.86-38.37,7.51a182.55,182.55,0,0,1-34.19-26.69s-129.41-16.8-183.2-201.12Z"/><path class="cls-29" d="M1637.67,932.05l16.74,66.77a1.76,1.76,0,0,1-.8,2c-.84.49-3.38,1.11-4.62-1.12-2.28-4.1-22.91-60.38-28.17-76.38a1.79,1.79,0,0,1,2.55-2.14c4.09,2.19,10.42,6,13.94,10.21A1.8,1.8,0,0,1,1637.67,932.05Z"/><path class="cls-29" d="M1653.85,1000.56,1607,1073.91a.77.77,0,0,1-.84.34c-.33-.1-.65-.43-.65-1.34,0-1.82,44-72.36,44-72.36s1.88-2.58,4.11-1A.78.78,0,0,1,1653.85,1000.56Z"/><path class="cls-29" d="M1684.4,957.19l6.77,34.63c.1.5.85,2.73.93,3.23.47,3,5.88,6.25,5.88-2.5,0-8.46-4.38-29.71-6.17-37.25-.39-1.62-2.21-2.4-3.87-2.4h0S1681.62,946.94,1684.4,957.19Z"/><path class="cls-29" d="M1697.61,995.85l-39.24,78.1s-1.53,1.19-2.71,0,38.31-78.1,38.31-78.1S1695.14,991.62,1697.61,995.85Z"/><path class="cls-30" d="M1507.15,537.27s6.33,2.16,8,5.77,52.36-4,52.36-4,0-.12-1.56-1.73a19,19,0,0,0-2.78-2.77c-4.53-3.9-6.72-4.89-8.5-5.63C1550.66,527.24,1513.48,529.14,1507.15,537.27Z"/><path class="cls-30" d="M1569,773.49s-19.22,24.22-22.42,51.68c0,0,20,53.11,74.59,96.42C1621.17,921.59,1555.66,847.72,1569,773.49Z"/><path class="cls-31" d="M1559.72,732.42l8.08,35.76a29.24,29.24,0,0,1,.51,10,135.45,135.45,0,0,0,1.77,43.31c5.45,25.56,19.8,63.61,51.09,100.1,0,0,47.15,33.2,80,35.66,0,0,40.82,45.6,70.71,35.59a12.94,12.94,0,0,0,4.73-13.6c-2.21-8.78-79.82-369.52-215.52-251A4.27,4.27,0,0,0,1559.72,732.42Z"/><path class="cls-29" d="M1583.73,1074.48s20.71-3,23-2.8,21,2.8,21,2.8Z"/><path class="cls-29" d="M1634,1074.48s20.72-3,23-2.8,21,2.8,21,2.8Z"/><path class="cls-32" d="M1569,773.49s28.62,80.22,132.16,183.76c0,0-26.35.29-80-35.66C1621.17,921.59,1555.77,849.42,1569,773.49Z"/><circle class="cls-33" cx="1507.15" cy="546.23" r="7.02"/><circle class="cls-22" cx="1507.15" cy="546.02" r="4.48"/><circle class="cls-9" cx="1508.07" cy="544.33" r="1.69"/><path class="cls-34" d="M1723.59,996.66c-1,0-1.16.78-.15.79,21.59.18,49.78-7,74.63-9.5,40.32-4,78,6.78,81.12,7.82.1,0,12.9,4.24,13,4.24,1.46,0,11.65-1.36,33.16-5.27s-26.18,2.76-30.22,3.59c-.17,0-4.35-.91-4.51-1-3.14-1.16-30.44-11.66-51.13-13-21.8-1.43-91,9.81-95.48,10.12C1742,994.6,1733.78,996.33,1723.59,996.66Z"/><path class="cls-35" d="M1667,1001.81c-.33-1,44.76-18.07,106.32-17.25,53.94.73,99.46,5.25,99.29,5.76s-34.66.45-67-2.45C1726.72,980.8,1667.37,1002.91,1667,1001.81Z"/><path class="cls-34" d="M1645.58,1014.72c-1,.19-.93.95.07.8,21.18-3.2,46.92-14.64,70.6-21,38.43-10.27,78.14-5.55,81.49-5,.11,0,13.74,2.15,13.85,2.13,1.42-.27,11.06-3.16,31.1-10.34s-24.92,6.79-28.66,8.23c-.16.06-4.49-.21-4.67-.24-3.38-.65-32.86-6.67-53.48-4.76-21.72,2-86.56,23.82-90.86,24.82C1663,1009.83,1655.48,1012.81,1645.58,1014.72Z"/><ellipse class="cls-36" cx="1856.67" cy="1004.94" rx="20.77" ry="33.78"/><polygon class="cls-37" points="1851.43 972.24 1849.69 978.52 1856.11 990.26 1849.28 986.73 1857.29 1003.68 1854.7 1001.1 1846.69 983.43 1853.52 987.43 1849.35 978.59 1851.08 972.39 1851.43 972.24"/><ellipse class="cls-36" cx="1812.71" cy="1022.3" rx="20.77" ry="33.78"/><polygon class="cls-37" points="1817.96 989.6 1819.69 995.88 1813.27 1007.62 1820.1 1004.09 1812.1 1021.04 1814.69 1018.46 1822.69 1000.79 1815.86 1004.79 1820.03 995.95 1818.3 989.75 1817.96 989.6"/><ellipse class="cls-36" cx="1769.8" cy="1004.07" rx="20.77" ry="33.78" transform="translate(-262 893.97) rotate(-26.47)"/><polygon class="cls-37" points="1759.92 972.46 1764.28 977.31 1763.76 990.68 1768.3 984.47 1768.69 1003.22 1769.86 999.75 1769.15 980.37 1764.82 986.99 1764.62 977.22 1760.3 972.44 1759.92 972.46"/><ellipse class="cls-36" cx="1723.85" cy="1005.32" rx="33.78" ry="20.77" transform="translate(135.71 2213.69) rotate(-67.52)"/><polygon class="cls-37" points="1741.19 977.12 1740.4 983.58 1729.98 991.98 1737.64 991.33 1723.76 1003.93 1727.14 1002.53 1741.29 989.27 1733.45 990.36 1740.69 983.78 1741.45 977.39 1741.19 977.12"/><polygon class="cls-37" points="1726.24 998.75 1722.85 995.99 1721.81 987.07 1719.44 991.66 1717.24 979.27 1716.83 981.69 1719.3 994.47 1721.48 989.63 1722.64 996.09 1725.99 998.81 1726.24 998.75"/><polygon class="cls-38" points="1863.18 977.12 1864.51 981.26 1868.77 984.57 1858.32 982.37 1859 979.88 1863.18 977.12"/><path class="cls-39" d="M1892.8,1000.64c-6.66,1.68-93.21,22.64-211.33,3.81a1,1,0,0,0-.65.12c-4.59,2.82-60.19,39,37.4,80.66,94.67,40.39,194.79-31,197.41-40,.76-2.61,2.06-4.34,1-11.09-1.12-7.12,2.3-16.91-23.09-33.43A1,1,0,0,0,1892.8,1000.64Z"/><path class="cls-35" d="M1930.92,1021.1c.55.9-39.61,24.21-100.29,32.29-53.16,7.08-99,9.21-98.93,8.68s34-5.44,66.41-7.26C1877.32,1050.36,1930.28,1020.06,1930.92,1021.1Z"/><path class="cls-35" d="M1838.75,1046.84c0,1-49.44,8-108.37-5.83-51.64-12.07-93.84-26-93.5-26.48s33.51,6.88,63.59,16.49C1773.88,1054.46,1838.78,1045.7,1838.75,1046.84Z"/><path class="cls-35" d="M1954.25,1000.56c.56.91-39.61,24.22-100.28,32.29-53.17,7.08-99,9.21-98.94,8.68s34-5.44,66.41-7.26C1900.66,1029.82,1953.62,999.53,1954.25,1000.56Z"/><path class="cls-35" d="M1868.37,1066.12c.47.93-41.75,22-103,26.66-53.68,4.11-99.58,3.7-99.48,3.18s34.36-3.55,66.91-3.57C1812.2,1092.34,1867.83,1065.05,1868.37,1066.12Z"/><path class="cls-35" d="M1845.2,1023.16c.33,1-44.63,18.26-106.2,17.7-53.94-.5-99.49-4.83-99.33-5.34s34.66-.59,67,2.17C1785.63,1044.43,1844.82,1022.06,1845.2,1023.16Z"/><path class="cls-35" d="M1950.35,1031.46c.48.93-41.37,22.38-102.56,27.69-53.61,4.66-99.51,4.71-99.42,4.19s34.3-3.9,66.84-4.25C1894.63,1058.25,1949.79,1030.4,1950.35,1031.46Z"/><path class="cls-35" d="M1875.51,1009.6c.18,1-47.08,14.13-108.14,8-53.5-5.34-98.1-13.73-97.86-14.22s34.52,2.52,66.23,8.17C1813.14,1025.37,1875.29,1008.47,1875.51,1009.6Z"/><path class="cls-35" d="M1671.11,1092.47c-.4-1,43.32-20.06,104.84-22,53.9-1.71,99.69.75,99.56,1.27s-34.57,2-67.07.57C1729.14,1068.8,1671.57,1093.56,1671.11,1092.47Z"/><path class="cls-40" d="M1875.51,1074.8s-60.63-6.24-102.55-5-93.31-20.33-93.31-20.33-10.65-.73-32.68,4.76,30.79-1.52,30.79-1.52,32,14.89,53.52,17.82,93.07,2.56,97.57,2.56S1875.51,1074.8,1875.51,1074.8Z"/><path class="cls-40" d="M1948.26,1047s-60.62-6.24-102.54-5-93.31-20.33-93.31-20.33-10.66-.73-32.68,4.76,30.79-1.52,30.79-1.52,32,14.89,53.52,17.82,93.07,2.56,97.57,2.56S1948.26,1047,1948.26,1047Z"/><path class="cls-40" d="M1872,1031.9s-60.62-6.24-102.54-5-93.31-20.32-93.31-20.32-10.66-.74-32.68,4.76,30.79-1.52,30.79-1.52,32,14.88,53.52,17.81,93.07,2.57,97.57,2.57S1872,1031.9,1872,1031.9Z"/><path class="cls-40" d="M1723.85,1045.27s60.12-8.68,99.43-20,96.86-3.17,96.86-3.17,10.42-1.87,29.13-12.4-28.64,8.86-28.64,8.86-36.38-6.44-58-4-89.48,20-93.75,21.07S1723.85,1045.27,1723.85,1045.27Z"/><path class="cls-34" d="M1918.77,1071.08c1,0,1.24-.7.23-.78-21.48-1.66-50.39,3.53-75.42,4.3-40.63,1.24-76.88-12.14-79.89-13.39-.1,0-12.36-5.12-12.47-5.13-1.46-.06-11.77.55-33.63,3s26.39-.94,30.5-1.48c.18,0,4.23,1.2,4.39,1.27,3,1.38,29,13.72,49.42,16.5,21.55,2.93,91.76-3.47,96.26-3.47C1900.22,1071.86,1908.58,1070.7,1918.77,1071.08Z"/><path class="cls-34" d="M1925,1018.38c1,0,1.25-.7.24-.78-21.48-1.67-50.39,3.53-75.43,4.3-40.62,1.24-76.87-12.15-79.89-13.4-.1,0-12.36-5.12-12.47-5.12-1.45-.07-11.76.55-33.63,3s26.39-.94,30.51-1.48c.18,0,4.23,1.2,4.38,1.27,3,1.38,29,13.73,49.42,16.51,21.55,2.93,91.77-3.47,96.27-3.47C1906.48,1019.16,1914.83,1018,1925,1018.38Z"/><path class="cls-34" d="M1878,1077.49c1,0,1.25-.7.24-.78-21.48-1.67-50.39,3.53-75.43,4.3-40.62,1.24-76.87-12.14-79.88-13.39-.1,0-12.36-5.13-12.48-5.13-1.45-.07-11.76.55-33.63,3s26.39-.94,30.51-1.48c.18,0,4.23,1.2,4.39,1.28,3,1.37,29,13.72,49.41,16.5,21.55,2.93,91.77-3.47,96.27-3.47C1859.43,1078.27,1867.78,1077.11,1878,1077.49Z"/><path class="cls-34" d="M1960.36,1046.78c1-.13,1-.89,0-.8-21.45,1.84-48.32,11.6-72.59,16.4-39.4,7.78-78.46.55-81.75-.18-.11,0-13.47-3-13.58-3-1.44.17-11.36,2.44-32.09,8.32s25.56-5.18,29.43-6.38c.17-.05,4.46.49,4.64.54,3.3.86,32,8.74,52.78,8.15,21.87-.62,88.81-18.23,93.21-19C1942.44,1050.54,1950.29,1048.06,1960.36,1046.78Z"/><path class="cls-34" d="M1836.11,1054c1,0,1.24-.7.24-.78-21.49-1.67-50.4,3.53-75.43,4.29-40.63,1.25-76.88-12.14-79.89-13.39-.1,0-12.59-5.11-12.47-5.12,6.84-.71-2,.16-11.84,1.88-31.29,5.5,4.6.13,8.71-.41.18,0,4.23,1.2,4.39,1.27,3,1.38,29,13.73,49.42,16.51,21.55,2.93,91.77-3.48,96.26-3.48C1817.57,1054.76,1825.92,1053.61,1836.11,1054Z"/><path class="cls-34" d="M1839.22,1035.19c1-.22.89-1-.09-.8-21.05,3.72-46.3,15.79-69.71,22.69-38,11.21-77.86,7.48-81.24,7-.11,0-14-1.75-13.93-1.78,6.19-2.36-1.87.65-10.44,4.7-27.38,12.94,4.41-1,8.09-2.54.16-.06,4.5.1,4.68.13,3.4.56,33.12,5.85,53.64,3.44,21.64-2.55,85.54-26,89.8-27.06C1822,1040.5,1829.41,1037.35,1839.22,1035.19Z"/><path class="cls-35" d="M1930.73,984.16c-.14-1-13.78,18-73.39,29.92-52.24,10.42-97.67,15.46-97.68,14.93s32.92-10,65.41-11.46C1906.68,1013.9,1931.47,989.32,1930.73,984.16Z"/><path class="cls-35" d="M1944.42,1024.84c.49.93-41.37,22.38-102.56,27.69-53.61,4.65-99.51,4.7-99.42,4.18s34.3-3.89,66.84-4.24C1888.7,1051.62,1943.86,1023.78,1944.42,1024.84Z"/><path class="cls-35" d="M1934.47,1050.06c.49.93-41.37,22.38-102.56,27.69-53.61,4.65-99.5,4.7-99.42,4.18s34.3-3.89,66.84-4.24C1878.75,1076.84,1933.92,1049,1934.47,1050.06Z"/><path class="cls-35" d="M1845.2,1047.05c.48.93-41.38,22.38-102.56,27.69-53.61,4.66-99.51,4.71-99.43,4.18s34.3-3.89,66.85-4.24C1789.48,1073.84,1844.64,1046,1845.2,1047.05Z"/><path class="cls-35" d="M1845.2,1017c.48.93-41.38,22.38-102.56,27.69-53.61,4.65-99.51,4.7-99.43,4.18s34.3-3.89,66.85-4.24C1789.48,1043.8,1844.64,1016,1845.2,1017Z"/><path class="cls-35" d="M1856,1027.64c.49.93-41.37,22.38-102.56,27.7-53.61,4.65-99.51,4.7-99.42,4.18s34.3-3.9,66.84-4.24C1800.3,1054.43,1855.47,1026.58,1856,1027.64Z"/><path class="cls-35" d="M1951.23,998.48c.49.93-41.37,22.38-102.56,27.7-53.61,4.65-99.5,4.7-99.42,4.18s34.3-3.9,66.84-4.24C1895.51,1025.27,1950.68,997.42,1951.23,998.48Z"/><path class="cls-35" d="M1947.21,1012c.48.93-41.38,22.38-102.56,27.69-53.61,4.66-99.51,4.71-99.43,4.18s34.31-3.89,66.85-4.24C1891.49,1038.8,1946.65,1011,1947.21,1012Z"/><path class="cls-35" d="M1939.16,1011.58c.48.93-41.38,22.38-102.56,27.69-53.62,4.66-99.51,4.71-99.43,4.18s34.3-3.89,66.85-4.24C1883.43,1038.37,1938.6,1010.52,1939.16,1011.58Z"/><path class="cls-40" d="M1707.13,1083.44s60.13-8.68,99.44-20,96.85-3.16,96.85-3.16,10.43-1.87,29.14-12.4-28.64,8.86-28.64,8.86-36.38-6.44-58-4-89.47,20-93.75,21.07S1707.13,1083.44,1707.13,1083.44Z"/><path class="cls-40" d="M1623.23,1050.57c-.92.2-.58,1.26.34,1.1,21.1-3.56,53.11-9.51,77.26-16.46,38.14-11,93.44-3.64,96.7-3.19a1.06,1.06,0,0,0,.31,0c1.37-.28,11.6-2.59,29-12.36,17.94-10.09-24.81,7.29-28.4,8.76a1,1,0,0,1-.5,0c-3.32-.57-37.19-6.28-57.78-4-21.66,2.41-89.47,20-93.75,21.07C1644.32,1046.06,1633.65,1048.35,1623.23,1050.57Z"/><path class="cls-40" d="M1615.4,1075.42s60.12-8.68,99.43-20,96.86-3.17,96.86-3.17,10.42-1.87,29.13-12.39-28.64,8.86-28.64,8.86-36.38-6.45-58-4-89.47,20-93.74,21.07S1615.4,1075.42,1615.4,1075.42Z"/><path class="cls-34" d="M1874.37,1079.15c1,0-38.15,12-63.19,12.8-40.62,1.24-76.87-12.14-79.88-13.39-.1,0-12.36-5.12-12.48-5.13-1.45-.06-11.76.55-33.63,3s26.39-.94,30.51-1.48c.18,0,4.23,1.2,4.39,1.28,3,1.37,29,13.72,49.41,16.5,21.55,2.93,91.77-11.49,96.27-11.49C1867.83,1081.19,1864.18,1078.77,1874.37,1079.15Z"/><path class="cls-34" d="M1867.89,1024.29c1,0,1.24-.7.23-.78-21.48-1.67-50.39,3.53-75.42,4.3-40.63,1.24-76.88-12.14-79.89-13.39-.1,0-12.36-5.12-12.48-5.13-1.45-.06-11.76.55-33.62,3s26.39-.94,30.5-1.49c.18,0,4.23,1.2,4.39,1.28,3,1.37,29,13.72,49.42,16.5,21.55,2.93,91.76-3.47,96.26-3.47C1849.34,1025.07,1857.69,1023.91,1867.89,1024.29Z"/><path class="cls-40" d="M1911,997.31s-60.49,7-100.32,17.16-96.94.42-96.94.42-10.5,1.57-29.7,11.56,29-8,29-8,36,7.47,57.81,5.67,90.36-17.43,94.68-18.39S1911,997.31,1911,997.31Z"/><path class="cls-35" d="M1655.46,1020.94s-3.54,4.25,4.77,7.19,21.28,2.47,21.28,2.47l50.19,3.68-70.33-3.3c-2.95-.92-7.92-4.75-7.72-8.41A1.87,1.87,0,0,1,1655.46,1020.94Z"/><g class="cls-41"><path class="cls-22" d="M811.55,949.54c3.22,0,3.23-5,0-5s-3.22,5,0,5Z"/></g><path class="cls-15" d="M1286.58,871.45c-3.49-9.61,13.64,91.91,41.72,192.31C1349.6,1139.88,1286.58,871.45,1286.58,871.45Z"/><path class="cls-15" d="M1363.7,764.62c.13-15.29-23.79,139.53-42.72,293C1306.46,1175.45,1363.7,764.62,1363.7,764.62Z"/><path class="cls-16" d="M1336.49,1055.49s39.15-121.44,113.49-138C1450,917.51,1281,928.71,1336.49,1055.49Z"/><path class="cls-14" d="M1334.37,1092.08s12.71,1.25,15.17-5.19c11.37-29.68,37.24-119.2,98.32-132.79C1447.86,954.1,1313.69,925.72,1334.37,1092.08Z"/><path class="cls-14" d="M1334.25,1090.27s-48.44-172.77-131-168.44C1203.24,921.83,1343.39,882.89,1334.25,1090.27Z"/><path class="cls-16" d="M1334.37,1092.08s-11,2.82-13.5-2.73c-13.32-29.52-49.8-128-101.52-117.73C1219.35,971.62,1367.68,943.23,1334.37,1092.08Z"/><path class="cls-17" d="M1342.24,838.33c.11,6,.29,16.85,5.58,20.2,4.52,2.85,13.69-.83,15.82-9.83,5.62-23.71,11.25-67.08,8.51-73s-21.56-9.07-23.35,0C1345.15,794.43,1342,824.44,1342.24,838.33Z"/><path class="cls-17" d="M1289.32,915c1.31,3.27,3.71,9.25,7.33,10.13,3.1.75,7.38-3,6.66-8.31-1.89-14.12-7.91-39.09-10.67-41.85s-13.81-1.07-12.88,4.29C1281.68,890.23,1286.25,907.37,1289.32,915Z"/><path class="cls-13" d="M930.9,957s-14.6,24.5-19.16,91.55a.42.42,0,0,0,.84.11C916.84,1027.19,921,973,930.9,957Z"/><path class="cls-12" d="M931.58,990.68s-8.77,2-18.69,58a.36.36,0,0,0,.7.17C919.12,1031.22,921.81,1003.28,931.58,990.68Z"/><path class="cls-14" d="M898.17,970.13c.37-.15,9.48,11.74,12.46,79.24a.43.43,0,0,0,.85,0C913,1037.79,907.87,973.45,898.17,970.13Z"/><path class="cls-11" d="M902.33,1014.42s8.25,1.35,8.43,35.24c0,.27-.65.35-.71.09C907.64,1039,909.75,1022.15,902.33,1014.42Z"/><path class="cls-13" d="M962.23,906.68S973,924.8,976.41,974.39a.32.32,0,0,1-.63.09C972.63,958.61,969.54,918.54,962.23,906.68Z"/><path class="cls-12" d="M961.73,931.61s6.49,1.49,13.82,42.92a.27.27,0,0,1-.52.13C970.94,961.59,969,940.92,961.73,931.61Z"/><path class="cls-14" d="M986.44,916.4c-.27-.1-7,8.69-9.22,58.62a.32.32,0,0,1-.63,0C975.5,966.45,979.27,918.86,986.44,916.4Z"/><path class="cls-11" d="M983.36,949.17s-6.09,1-6.23,26.06c0,.2.48.26.52.07C979.44,967.37,977.87,954.89,983.36,949.17Z"/><path class="cls-13" d="M1096.74,910.58s10.8,18.12,14.17,67.72a.31.31,0,0,1-.62.08C1107.14,962.51,1104,922.44,1096.74,910.58Z"/><path class="cls-12" d="M1096.23,935.51s6.49,1.49,13.83,42.93a.27.27,0,0,1-.52.13C1105.45,965.49,1103.46,944.83,1096.23,935.51Z"/><path class="cls-14" d="M1121,920.31c-.27-.11-7,8.68-9.22,58.61a.32.32,0,0,1-.63,0C1110,970.35,1113.77,922.76,1121,920.31Z"/><path class="cls-11" d="M1117.87,953.07s-6.1,1-6.24,26.06c0,.2.49.27.53.07C1113.94,971.27,1112.38,958.79,1117.87,953.07Z"/><path class="cls-13" d="M853.28,912.68s4.42,7.41,5.8,27.69a.13.13,0,0,1-.26,0C857.53,933.92,856.27,917.53,853.28,912.68Z"/><path class="cls-12" d="M853.07,922.87s2.66.61,5.66,17.56a.11.11,0,0,1-.21.06C856.84,935.14,856,926.68,853.07,922.87Z"/><path class="cls-14" d="M863.18,916.65c-.11,0-2.87,3.56-3.77,24a.13.13,0,0,1-.26,0C858.71,937.13,860.25,917.66,863.18,916.65Z"/><path class="cls-11" d="M861.92,930.06s-2.49.4-2.55,10.66c0,.08.2.1.22,0C860.32,937.5,859.68,932.4,861.92,930.06Z"/><path class="cls-13" d="M706.1,882s10.81,18.13,14.18,67.72a.32.32,0,0,1-.63.08C716.51,934,713.41,893.89,706.1,882Z"/><path class="cls-12" d="M705.6,907s6.49,1.5,13.82,42.93a.26.26,0,0,1-.51.13C714.82,937,712.82,916.28,705.6,907Z"/><path class="cls-14" d="M730.31,891.76c-.27-.11-7,8.69-9.21,58.62a.32.32,0,0,1-.63,0C719.37,941.81,723.14,894.22,730.31,891.76Z"/><path class="cls-11" d="M727.24,924.52s-6.1,1-6.24,26.07c0,.19.48.26.53.07C723.31,942.72,721.75,930.24,727.24,924.52Z"/><path class="cls-13" d="M1034.43,819.79s10.8,18.12,14.18,67.71a.32.32,0,0,1-.63.09C1044.83,871.72,1041.74,831.65,1034.43,819.79Z"/><path class="cls-12" d="M1033.93,844.72s6.49,1.49,13.82,42.92a.27.27,0,0,1-.52.13C1043.14,874.7,1041.15,854,1033.93,844.72Z"/><path class="cls-14" d="M1058.64,829.51c-.27-.1-7,8.69-9.22,58.62a.32.32,0,0,1-.63,0C1047.7,879.56,1051.47,832,1058.64,829.51Z"/><path class="cls-11" d="M1055.56,862.28s-6.09,1-6.23,26.06c0,.2.48.26.52.07C1051.64,880.48,1050.07,868,1055.56,862.28Z"/><path class="cls-13" d="M779.84,824.6s10.8,18.12,14.17,67.71a.31.31,0,0,1-.62.09C790.24,876.53,787.15,836.46,779.84,824.6Z"/><path class="cls-12" d="M779.34,849.53s6.48,1.49,13.82,42.93a.27.27,0,0,1-.52.12C788.55,879.51,786.56,858.85,779.34,849.53Z"/><path class="cls-14" d="M804.05,834.33c-.27-.11-7,8.68-9.22,58.61a.32.32,0,0,1-.63,0C793.11,884.37,796.87,836.78,804.05,834.33Z"/><path class="cls-11" d="M801,867.09s-6.1,1-6.24,26.06c0,.2.49.26.53.07C797,885.29,795.48,872.81,801,867.09Z"/><path class="cls-13" d="M1190.1,984.66s10.8,18.12,14.18,67.71a.32.32,0,0,1-.63.09C1200.5,1036.59,1197.41,996.51,1190.1,984.66Z"/><path class="cls-12" d="M1189.6,1009.59s6.49,1.49,13.82,42.92a.27.27,0,0,1-.52.13C1198.81,1039.57,1196.82,1018.9,1189.6,1009.59Z"/><path class="cls-14" d="M1214.31,994.38c-.27-.1-7,8.69-9.22,58.62a.32.32,0,0,1-.63,0C1203.37,1044.43,1207.14,996.84,1214.31,994.38Z"/><path class="cls-11" d="M1211.23,1027.15s-6.09,1-6.23,26.06c0,.2.48.26.52.07C1207.31,1045.35,1205.74,1032.87,1211.23,1027.15Z"/><path class="cls-13" d="M1145.15,849.75s10.8,18.12,14.17,67.72a.31.31,0,0,1-.62.08C1155.55,901.68,1152.45,861.61,1145.15,849.75Z"/><path class="cls-12" d="M1144.65,874.68s6.48,1.5,13.82,42.93a.27.27,0,0,1-.52.13C1153.86,904.67,1151.87,884,1144.65,874.68Z"/><path class="cls-14" d="M1169.36,859.48c-.27-.11-7,8.68-9.22,58.61a.32.32,0,0,1-.63,0C1158.41,909.52,1162.18,861.93,1169.36,859.48Z"/><path class="cls-11" d="M1166.28,892.24s-6.1,1-6.24,26.06c0,.2.49.27.53.07C1162.35,910.44,1160.79,898,1166.28,892.24Z"/><path class="cls-13" d="M1493.66,847.35s10.8,18.13,14.17,67.72a.31.31,0,0,1-.62.08C1504.06,899.28,1501,859.21,1493.66,847.35Z"/><path class="cls-12" d="M1493.15,872.28s6.49,1.5,13.82,42.93a.26.26,0,0,1-.51.13C1502.37,902.27,1500.38,881.6,1493.15,872.28Z"/><path class="cls-14" d="M1517.87,857.08c-.28-.11-7,8.69-9.22,58.61a.32.32,0,0,1-.63,0C1506.92,907.13,1510.69,859.54,1517.87,857.08Z"/><path class="cls-11" d="M1514.79,889.84s-6.1,1-6.24,26.07c0,.19.49.26.53.07C1510.86,908,1509.3,895.56,1514.79,889.84Z"/><path class="cls-13" d="M1814.62,845.35s3,5.07,4,18.95c0,.1-.16.13-.18,0C1817.53,859.88,1816.67,848.67,1814.62,845.35Z"/><path class="cls-12" d="M1814.48,852.33s1.82.41,3.87,12a.08.08,0,0,1-.15,0C1817.06,860.71,1816.5,854.93,1814.48,852.33Z"/><path class="cls-14" d="M1821.39,848.07c-.07,0-2,2.43-2.58,16.4a.09.09,0,0,1-.17,0C1818.33,862.07,1819.39,848.76,1821.39,848.07Z"/><path class="cls-11" d="M1820.53,857.24s-1.7.28-1.74,7.29c0,.06.13.07.15,0C1819.43,862.33,1819,858.84,1820.53,857.24Z"/><path class="cls-13" d="M1867.13,888.93s13.38,22.46,17.56,83.9a.39.39,0,0,1-.77.11C1880,953.28,1876.18,903.62,1867.13,888.93Z"/><path class="cls-12" d="M1866.5,919.82s8,1.85,17.13,53.19a.33.33,0,0,1-.64.16C1877.92,957,1875.46,931.37,1866.5,919.82Z"/><path class="cls-14" d="M1897.13,901c-.34-.13-8.69,10.77-11.43,72.63a.39.39,0,0,1-.78,0C1883.57,963,1888.23,904,1897.13,901Z"/><path class="cls-11" d="M1893.31,941.58s-7.55,1.23-7.73,32.29c0,.25.6.33.66.09C1888.45,964.13,1886.51,948.67,1893.31,941.58Z"/><path class="cls-13" d="M764.12,995.24s6.79,11.38,8.91,42.55a.2.2,0,0,1-.39,0C770.66,1027.87,768.71,1002.69,764.12,995.24Z"/><path class="cls-12" d="M763.81,1010.9s4.07.94,8.68,27a.17.17,0,0,1-.32.08C769.6,1029.74,768.35,1016.76,763.81,1010.9Z"/><path class="cls-14" d="M779.34,1001.35c-.17-.07-4.41,5.46-5.8,36.83a.2.2,0,0,1-.39,0C772.46,1032.8,774.83,1002.89,779.34,1001.35Z"/><path class="cls-11" d="M777.4,1021.94s-3.83.62-3.92,16.37c0,.13.31.17.33,0C774.93,1033.37,774,1025.53,777.4,1021.94Z"/><path class="cls-13" d="M366.87,859.17s3.92,6.58,5.14,24.58a.11.11,0,0,1-.22,0C370.64,878,369.52,863.47,366.87,859.17Z"/><path class="cls-12" d="M366.69,868.22s2.35.54,5,15.58a.09.09,0,0,1-.18.05C370,879.1,369.31,871.6,366.69,868.22Z"/><path class="cls-14" d="M375.66,862.7c-.1,0-2.55,3.15-3.35,21.28a.12.12,0,0,1-.23,0C371.68,880.87,373.05,863.59,375.66,862.7Z"/><path class="cls-11" d="M374.54,874.59s-2.21.36-2.26,9.46c0,.08.17.1.19,0C373.11,881.2,372.55,876.67,374.54,874.59Z"/><path class="cls-13" d="M245.29,855.74s3.92,6.58,5.15,24.58a.12.12,0,0,1-.23,0C249.07,874.59,247.94,860.05,245.29,855.74Z"/><path class="cls-12" d="M245.11,864.79s2.35.54,5,15.58c0,.12-.16.17-.19,0C248.45,875.68,247.73,868.17,245.11,864.79Z"/><path class="cls-14" d="M254.08,859.27c-.1,0-2.55,3.16-3.35,21.28,0,.14-.21.14-.23,0C250.11,877.44,251.47,860.16,254.08,859.27Z"/><path class="cls-11" d="M253,871.17s-2.21.36-2.26,9.46c0,.07.17.09.19,0C251.54,877.77,251,873.24,253,871.17Z"/><path class="cls-13" d="M1496.29,947s17.53,29.41,23,109.9a.51.51,0,0,1-1,.14C1513.17,1031.32,1508.15,966.29,1496.29,947Z"/><path class="cls-12" d="M1495.47,987.5s10.53,2.43,22.44,69.67a.43.43,0,0,1-.84.21C1510.43,1036.16,1507.2,1002.62,1495.47,987.5Z"/><path class="cls-14" d="M1535.58,962.83c-.44-.18-11.38,14.09-15,95.12a.51.51,0,0,1-1,0C1517.82,1044.05,1523.93,966.81,1535.58,962.83Z"/><path class="cls-11" d="M1530.59,1016s-9.9,1.62-10.13,42.3c0,.32.79.42.86.11C1524.21,1045.53,1521.68,1025.28,1530.59,1016Z"/><path class="cls-9" d="M623.62,414.93q.33,6.44.72,12.72t.58,12.73q-14.74,2.5-29.47,5.17.54,4.27,1.1,8.55,12.83-1.67,25.66-3.21l1.14,21.21q-12.06,1.8-24.13,3.71,2.49,18.7,5,37.4-17.22,2.58-34.41,5.37-5.65-47.6-11.24-95.21Q591.05,418.78,623.62,414.93Z"/><path class="cls-9" d="M713,437.22a45.18,45.18,0,0,1-.1,9.71,28.71,28.71,0,0,1-2.26,8.2,29.07,29.07,0,0,1-4.61,7.14,47.59,47.59,0,0,1-7.16,6.56q9.58,13.67,19,27.38-15.17,4.35-30.25,8.86-6.71-14-13.5-27.91l-8.54,1.17q.88,14.21,1.76,28.41Q652.66,508.3,638,510q-1.47-15.51-3-30.9t-2.87-30.91c-.51-5.21-1-10.39-1.52-15.51s-.92-10.31-1.24-15.55a92.23,92.23,0,0,1,9.42-4,90.91,90.91,0,0,1,9.45-2.88q4.77-1.17,9.74-1.94t10.21-1.3a56.08,56.08,0,0,1,15.82.59A40.6,40.6,0,0,1,698,412.76a32.41,32.41,0,0,1,10.24,9.85A30.68,30.68,0,0,1,713,437.22Zm-31.15,5.09a16.17,16.17,0,0,0-1.32-5.16,11.49,11.49,0,0,0-2.79-3.88,10.9,10.9,0,0,0-4.2-2.32,14.33,14.33,0,0,0-5.62-.43,21.74,21.74,0,0,0-2.72.46,17.81,17.81,0,0,0-2.54.78q.76,12.71,1.54,25.4l1.67-.17a26.33,26.33,0,0,0,6-1.38,18.75,18.75,0,0,0,5.34-2.88,13.07,13.07,0,0,0,3.64-4.42A10.54,10.54,0,0,0,681.84,442.31Z"/><path class="cls-9" d="M804.53,448.38a48.7,48.7,0,0,1-.8,12.06,46.56,46.56,0,0,1-3.58,11.05,45.86,45.86,0,0,1-6.09,9.64,42.57,42.57,0,0,1-8.3,7.73,43.23,43.23,0,0,1-22.18,7.85,44,44,0,0,1-11.87-.71,45.47,45.47,0,0,1-10.81-3.59A43.21,43.21,0,0,1,724,478a45.77,45.77,0,0,1-5.25-10.09,43.32,43.32,0,0,1-2.57-11.51,46.57,46.57,0,0,1,.46-11.74,45.91,45.91,0,0,1,9.25-20.91,43.47,43.47,0,0,1,8.26-8,42.59,42.59,0,0,1,10.26-5.6,41.72,41.72,0,0,1,12-2.59,53.54,53.54,0,0,1,18.91,1.8,40.11,40.11,0,0,1,14.95,7.88,38.82,38.82,0,0,1,10,13.25A47.66,47.66,0,0,1,804.53,448.38ZM773.7,452a18.69,18.69,0,0,0-1.25-5.64,15.53,15.53,0,0,0-2.87-4.74,13.14,13.14,0,0,0-4.4-3.19,11.83,11.83,0,0,0-5.8-.94,14.21,14.21,0,0,0-5.79,1.59,13.25,13.25,0,0,0-4.21,3.49,13.84,13.84,0,0,0-2.48,4.92,16.78,16.78,0,0,0-.54,5.77,20.38,20.38,0,0,0,1.27,5.66,16.94,16.94,0,0,0,2.89,5,13.18,13.18,0,0,0,4.4,3.44,11.08,11.08,0,0,0,5.81,1,13.12,13.12,0,0,0,9.94-5.38,15.59,15.59,0,0,0,2.44-5.13A17.49,17.49,0,0,0,773.7,452Z"/><path class="cls-9" d="M894.41,479.2a32.7,32.7,0,0,1-7.81,7.24,53.76,53.76,0,0,1-10,5.27,67,67,0,0,1-11,3.33,65.56,65.56,0,0,1-10.79,1.37,46.83,46.83,0,0,1-18.45-2.8,44.46,44.46,0,0,1-14.92-9.11,46.33,46.33,0,0,1-10.31-14.22,47.82,47.82,0,0,1-4.45-18,60.93,60.93,0,0,1,1-14.67,60,60,0,0,1,4.3-13.71,55.16,55.16,0,0,1,7.42-12,50.2,50.2,0,0,1,10.32-9.63,51.17,51.17,0,0,1,12.94-6.51,53.08,53.08,0,0,1,15.26-2.7c2-.07,4.22-.07,6.55,0a67.59,67.59,0,0,1,7,.6,49.11,49.11,0,0,1,6.76,1.4,32.64,32.64,0,0,1,6,2.37q-.66,13.08-1.29,26.16a36.1,36.1,0,0,0-8.18-1.72,65.05,65.05,0,0,0-8.21-.26,31.74,31.74,0,0,0-10.46,2,25.05,25.05,0,0,0-8.32,5.14,22.52,22.52,0,0,0-5.4,7.88,23.7,23.7,0,0,0-1.67,10.26,24.27,24.27,0,0,0,1.26,6.82,17.68,17.68,0,0,0,3.2,5.76,15.2,15.2,0,0,0,5.09,3.93,14.43,14.43,0,0,0,6.89,1.32,23.46,23.46,0,0,0,5.41-.88,12,12,0,0,0,4.74-2.49c0-1.78.07-3.55.11-5.33q-8.35.14-16.7.32,0-10.26,0-20.53,10.43-.74,20.85-1.3t21-1.22Q893.46,456.25,894.41,479.2Z"/><path class="cls-9" d="M986.5,486.66q-17.07,2-34.08,4.24-2.08-7.71-4.18-15.43-7.87,0-15.74.1-1.65,7.74-3.28,15.48-17.52-1.51-35.08-2.82,12.6-45.83,26.11-91.55,19.72-1.21,39.47-2.17Q973.57,440.52,986.5,486.66Zm-40.84-32.1q-2.7-11.88-5.45-23.76-2.51,11.91-5,23.83Z"/><path class="cls-9" d="M1049.43,454.9q-2,15.12-3.87,30.25-29,1.34-58,3.3Q988.25,464.6,989,441t1.83-47.43q18.46.21,36.94.66-2,14.92-3.81,29.82t-2.78,30.06c2.17.14,4.33.24,6.46.29l6.47.16c2.6.07,5.15.13,7.65.15S1046.84,454.82,1049.43,454.9Z"/><path class="cls-9" d="M1133.91,405.22q-21.09,25-41.46,50.31-1.92,21.33-3.82,42.66-16.23-.76-32.46-1.34,1.15-21.23,2.33-42.46-9-25.69-18.45-51.34,18.14-1.68,36.3-3.11,2.24,14.87,4.4,29.74,9.54-14.37,19.28-28.67Q1117,403,1133.91,405.22Z"/><path class="cls-9" d="M1211,437.91a31.93,31.93,0,0,1-3.08,11.53,28.75,28.75,0,0,1-6.32,8.43,33.4,33.4,0,0,1-8.78,5.77,52.29,52.29,0,0,1-10.44,3.5,68.92,68.92,0,0,1-11.31,1.58,95.56,95.56,0,0,1-11.35,0q-1.14,15.88-2.29,31.77-15.95-1.15-31.9-2.11.95-15.63,2-31.12t2.1-31.23q.65-8.32,1.08-16.65t1.37-16.76a129.35,129.35,0,0,1,18.4-2.73,127.15,127.15,0,0,1,18.82,0,69.41,69.41,0,0,1,10.86,1.68,54,54,0,0,1,10.24,3.52,46.81,46.81,0,0,1,8.89,5.37,31,31,0,0,1,6.81,7.21,29.84,29.84,0,0,1,4.13,9.11A31.51,31.51,0,0,1,1211,437.91Zm-31.29-.3a8.83,8.83,0,0,0-2.23-7.13,10.4,10.4,0,0,0-7-3,19.73,19.73,0,0,0-3.07,0q-1.61.12-3,.36l-2.28,19.84a14.1,14.1,0,0,0,1.87.28l1.88.14a14.71,14.71,0,0,0,4.91-.46,13.18,13.18,0,0,0,4.33-2,11.9,11.9,0,0,0,3.18-3.38A9.94,9.94,0,0,0,1179.68,437.61Z"/><path class="cls-9" d="M1283,474.89a38.28,38.28,0,0,1-5.17,15.88,33,33,0,0,1-10.24,10.57,39.11,39.11,0,0,1-14,5.48,56.84,56.84,0,0,1-16.47.62,35.32,35.32,0,0,1-7.26-1.62c-2.6-.86-5.23-1.85-7.89-3s-5.19-2.35-7.63-3.61-4.61-2.42-6.49-3.51q2.77-13.89,5.58-27.77a50.5,50.5,0,0,0,12.55,6.5,58.65,58.65,0,0,0,13.89,3.19c.87.09,1.93.16,3.18.22a15.43,15.43,0,0,0,3.62-.24,8,8,0,0,0,3-1.23,3.69,3.69,0,0,0,1.48-2.8,3.21,3.21,0,0,0-.6-2.3,6.13,6.13,0,0,0-2-1.72,13.42,13.42,0,0,0-2.89-1.19c-1.08-.32-2.16-.58-3.21-.78s-2-.35-3-.44l-2.22-.22a28.27,28.27,0,0,1-10.66-3.11,25,25,0,0,1-7.86-6.47,26.11,26.11,0,0,1-4.68-9.15,30,30,0,0,1-1-11,30.48,30.48,0,0,1,4.65-14.09,33.52,33.52,0,0,1,10-10,40.6,40.6,0,0,1,13.57-5.59,48,48,0,0,1,15.33-.84c2.31.24,4.69.58,7.13,1a72.56,72.56,0,0,1,7.23,1.64,70.74,70.74,0,0,1,6.94,2.36,43,43,0,0,1,6.3,3.12q-2.92,13.64-5.82,27.27a84.74,84.74,0,0,0-9.69-3.73,50.24,50.24,0,0,0-10.08-2.16c-.61-.07-1.39-.14-2.35-.22s-2-.11-3-.11a29.91,29.91,0,0,0-3.25.18,13.43,13.43,0,0,0-3,.62,5.48,5.48,0,0,0-2.18,1.32,3.46,3.46,0,0,0,0,4.71,7.64,7.64,0,0,0,2.65,1.71,20.15,20.15,0,0,0,3.7,1.11c1.36.28,2.71.5,4.06.66s2.6.3,3.77.4a24.36,24.36,0,0,1,2.85.41,28.94,28.94,0,0,1,9.8,3.42,23.42,23.42,0,0,1,7,6.08,22.27,22.27,0,0,1,3.83,8.32A29.52,29.52,0,0,1,1283,474.89Z"/><path class="cls-9" d="M1361.56,422.34q-1.33,6.3-2.56,12.48t-2.7,12.46q-14.92-1.36-29.85-2.55c-.6,2.81-1.21,5.63-1.81,8.45q10.38,1.35,20.77,2.79-2.22,10.39-4.43,20.78-10.41-1.1-20.84-2.1-1,4.91-2,9.81,8.55,1.11,17.09,2.27,6.06.82,12.12,1.68-1.45,7.38-2.93,14.67t-2.85,14.61q-29.46-3.44-59-6.23,6.87-48.81,13.83-97.62Q1329.05,417.71,1361.56,422.34Z"/><path class="cls-9" d="M847.76,561.42c0,.92-.11,1.82-.16,2.72s-.11,1.81-.19,2.73l-6.21.32-.14,1.85h4.36l-.32,4.54-4.4.14-.14,2.14h6.21c-.06,1.08-.12,2.14-.18,3.2s-.12,2.12-.17,3.19l-12.63.29.12-3.63h-3.58l-1.46,3.31-7.27-.73L832.27,562Zm-13.41,13,.14-5.1-2.34,5.1Z"/><path class="cls-9" d="M866,579.26a6.72,6.72,0,0,1-1.7,1.51,11.43,11.43,0,0,1-2.16,1.07,14.15,14.15,0,0,1-2.38.63,12.68,12.68,0,0,1-2.31.22,10.35,10.35,0,0,1-3.91-.72,9,9,0,0,1-5.12-5.05,10.22,10.22,0,0,1-.73-3.87,12.85,12.85,0,0,1,.37-3.11,12.21,12.21,0,0,1,1.05-2.82,11.17,11.17,0,0,1,1.66-2.42,10.59,10.59,0,0,1,2.22-1.89,10.27,10.27,0,0,1,2.74-1.22,11.15,11.15,0,0,1,3.15-.44q.63,0,1.35.06a13.61,13.61,0,0,1,1.43.17,9.3,9.3,0,0,1,1.38.35,5.72,5.72,0,0,1,1.23.54l-.41,5.59a7.45,7.45,0,0,0-1.69-.41,12.43,12.43,0,0,0-1.7-.11,7.29,7.29,0,0,0-2.19.31,5.3,5.3,0,0,0-1.78.93,4.34,4.34,0,0,0-1.19,1.54,5,5,0,0,0-.44,2.14,5.49,5.49,0,0,0,.2,1.47,3.92,3.92,0,0,0,.63,1.26,3.2,3.2,0,0,0,1,.89,3,3,0,0,0,1.44.33,5.23,5.23,0,0,0,1.15-.14,2.57,2.57,0,0,0,1-.5l.06-1.14-3.52-.06L857,570c1.45-.05,2.91-.09,4.36-.12s2.92-.08,4.4-.14Z"/><path class="cls-9" d="M884.8,579.26a6.89,6.89,0,0,1-1.7,1.51,11.83,11.83,0,0,1-2.17,1.07,13.8,13.8,0,0,1-2.37.63,12.78,12.78,0,0,1-2.32.22,10.38,10.38,0,0,1-3.91-.72,9.06,9.06,0,0,1-5.11-5.05,10,10,0,0,1-.73-3.87,13.36,13.36,0,0,1,.36-3.11,12.69,12.69,0,0,1,1-2.82,11.54,11.54,0,0,1,1.66-2.42,10.9,10.9,0,0,1,2.23-1.89,10.21,10.21,0,0,1,2.73-1.22,11.17,11.17,0,0,1,3.16-.44c.42,0,.87,0,1.34.06a13.61,13.61,0,0,1,1.43.17,9.12,9.12,0,0,1,1.39.35,5.72,5.72,0,0,1,1.23.54l-.41,5.59a7.58,7.58,0,0,0-1.69-.41,12.57,12.57,0,0,0-1.71-.11,7.39,7.39,0,0,0-2.19.31,5.16,5.16,0,0,0-1.77.93,4.37,4.37,0,0,0-1.2,1.54,5,5,0,0,0-.44,2.14,5.12,5.12,0,0,0,.21,1.47,3.71,3.71,0,0,0,.62,1.26,3.31,3.31,0,0,0,1,.89,3.06,3.06,0,0,0,1.44.33,5.16,5.16,0,0,0,1.15-.14,2.57,2.57,0,0,0,1-.5l.06-1.14-3.52-.06.18-4.4c1.46-.05,2.91-.09,4.37-.12s2.92-.08,4.39-.14Z"/><path class="cls-9" d="M902.26,570.71a18.19,18.19,0,0,1-.18,2.54c-1.67.11-3.33.29-5,.52l-5,.71a3.6,3.6,0,0,0,1.19,1.69,3.09,3.09,0,0,0,1.94.63,4.26,4.26,0,0,0,1.29-.22A11.32,11.32,0,0,0,898,576c.46-.22.9-.46,1.32-.71s.78-.48,1.08-.69l-.7,6.65a6.71,6.71,0,0,1-1.24.75,9.05,9.05,0,0,1-1.38.5,10.28,10.28,0,0,1-1.45.27,11.84,11.84,0,0,1-1.44.09,8.52,8.52,0,0,1-2.65-.39,7.86,7.86,0,0,1-2.18-1.11,8.2,8.2,0,0,1-1.7-1.68,9.37,9.37,0,0,1-1.22-2.11,12.49,12.49,0,0,1-.73-2.41,13.12,13.12,0,0,1-.25-2.58,14.83,14.83,0,0,1,.25-2.73,14.57,14.57,0,0,1,.75-2.62,11.17,11.17,0,0,1,1.28-2.33,9.18,9.18,0,0,1,1.79-1.89,8.43,8.43,0,0,1,2.33-1.26,8.62,8.62,0,0,1,2.86-.45,7.48,7.48,0,0,1,2.38.36,6.49,6.49,0,0,1,1.92,1,6.75,6.75,0,0,1,1.46,1.51,8.7,8.7,0,0,1,1,1.93,11.23,11.23,0,0,1,.6,2.21A14.3,14.3,0,0,1,902.26,570.71Zm-5.86-.77a4.14,4.14,0,0,0-.09-.84,2.42,2.42,0,0,0-.29-.78,1.62,1.62,0,0,0-.52-.58,1.35,1.35,0,0,0-.8-.23,1.73,1.73,0,0,0-1,.32,2.9,2.9,0,0,0-.77.79,4.78,4.78,0,0,0-.53,1,7.32,7.32,0,0,0-.31,1l4.34-.41Z"/><path class="cls-9" d="M921.39,575.13c0,1.1,0,2.19,0,3.27s-.06,2.17-.11,3.26l-8.44-.14c.3-1.73.55-3.46.77-5.18a43.28,43.28,0,0,0,.32-5.22c0-.13,0-.34,0-.62s0-.6-.06-1-.07-.72-.12-1.1a7.16,7.16,0,0,0-.22-1,2.62,2.62,0,0,0-.34-.77.56.56,0,0,0-.47-.3,1.31,1.31,0,0,0-.85.29,2.66,2.66,0,0,0-.57.76,5,5,0,0,0-.36,1,11.29,11.29,0,0,0-.19,1.14,10.71,10.71,0,0,0-.09,1.08c0,.34,0,.61,0,.83-.05,1.73-.09,3.44-.12,5.15s-.07,3.42-.12,5.16l-7.47.32c.2-3.45.39-6.87.57-10.28s.32-6.84.43-10.28l6.91-.36-.06,2.35a9.89,9.89,0,0,1,.89-.94,6.08,6.08,0,0,1,1-.75,5.13,5.13,0,0,1,1.15-.5,4.45,4.45,0,0,1,1.28-.19,5.43,5.43,0,0,1,2.18.41,5,5,0,0,1,1.61,1.12,6.16,6.16,0,0,1,1.13,1.66,11.21,11.21,0,0,1,.73,2,17.88,17.88,0,0,1,.43,2.27c.1.78.16,1.56.2,2.32s0,1.5,0,2.21Z"/><path class="cls-9" d="M939.11,570.71a19.82,19.82,0,0,1-.17,2.54c-1.67.11-3.33.29-5,.52l-5,.71a3.69,3.69,0,0,0,1.2,1.69,3.07,3.07,0,0,0,1.94.63,4.15,4.15,0,0,0,1.28-.22,10.84,10.84,0,0,0,1.39-.55c.45-.22.89-.46,1.31-.71s.79-.48,1.09-.69l-.71,6.65a7,7,0,0,1-1.23.75,9.58,9.58,0,0,1-1.39.5,10.28,10.28,0,0,1-1.45.27,11.68,11.68,0,0,1-1.43.09,8.52,8.52,0,0,1-2.65-.39,7.73,7.73,0,0,1-2.18-1.11,8,8,0,0,1-1.71-1.68,9.73,9.73,0,0,1-1.21-2.11,11.83,11.83,0,0,1-.73-2.41,13.12,13.12,0,0,1-.25-2.58,14.83,14.83,0,0,1,.25-2.73,13.1,13.1,0,0,1,.75-2.62,11.14,11.14,0,0,1,1.27-2.33,9.51,9.51,0,0,1,1.8-1.89,8.37,8.37,0,0,1,2.32-1.26,8.67,8.67,0,0,1,2.86-.45,7.43,7.43,0,0,1,2.38.36,6.49,6.49,0,0,1,1.92,1,6.8,6.8,0,0,1,1.47,1.51,8.67,8.67,0,0,1,1,1.93,11.23,11.23,0,0,1,.6,2.21A13.3,13.3,0,0,1,939.11,570.71Zm-5.86-.77a5,5,0,0,0-.08-.84,2.68,2.68,0,0,0-.29-.78,1.71,1.71,0,0,0-.52-.58,1.38,1.38,0,0,0-.81-.23,1.75,1.75,0,0,0-1,.32,3.05,3.05,0,0,0-.77.79,5.27,5.27,0,0,0-.53,1,8.78,8.78,0,0,0-.3,1l4.33-.41Z"/><path class="cls-9" d="M963.93,563.62l-6.48,7.7,5.95,10.08-6.8,1.2-4.45-6-.23,5.75-6.1.23.47-21,6.83.39-.53,6,4.25-6.12Z"/><path class="cls-9" d="M976.85,574.78l-.62,6.5-12.33,1,.47-20.92H972l-1.08,13.45Z"/><path class="cls-9" d="M1004.12,570.71a19.82,19.82,0,0,1-.17,2.54c-1.67.11-3.33.29-5,.52l-4.93.71.09.33a3.27,3.27,0,0,0,1.19,1.45,3.18,3.18,0,0,0,1.83.54,4.15,4.15,0,0,0,1.28-.22,10.84,10.84,0,0,0,1.39-.55c.46-.22.89-.46,1.31-.71s.79-.48,1.09-.69l-.7,6.65a7.44,7.44,0,0,1-1.24.75,9.58,9.58,0,0,1-1.39.5,10,10,0,0,1-1.45.27,11.56,11.56,0,0,1-1.43.09,11.07,11.07,0,0,1-2.87-.35,10.69,10.69,0,0,1-2.41-.92,7,7,0,0,1-1.75-1.27,3.38,3.38,0,0,1-.91-1.44h-3.49l-.79,3.31-7.47-.73L982.15,562l8.14-.41.56,1.91a8,8,0,0,1,2.49-1.57,8.45,8.45,0,0,1,3.2-.57,7.52,7.52,0,0,1,2.38.36,6.56,6.56,0,0,1,1.91,1,6.8,6.8,0,0,1,1.47,1.51,8.67,8.67,0,0,1,1,1.93,12,12,0,0,1,.61,2.21A14.3,14.3,0,0,1,1004.12,570.71Zm-16.78,3.72-1.12-5.1-1.08,5.1Zm10.92-4.49a5,5,0,0,0-.08-.84,2.68,2.68,0,0,0-.29-.78,1.71,1.71,0,0,0-.52-.58,1.36,1.36,0,0,0-.81-.23,1.75,1.75,0,0,0-1,.32,3.05,3.05,0,0,0-.77.79,4.74,4.74,0,0,0-.52,1,7.32,7.32,0,0,0-.31,1l4.33-.41Z"/><path class="cls-9" d="M1023.08,563.62l-6.48,7.7,5.95,10.08-6.8,1.2-4.45-6-.23,5.75-6.1.23.47-21,6.83.39-.53,6,4.25-6.12Z"/><path class="cls-9" d="M1041.15,563.62l-6.47,7.7,6,10.08-6.8,1.2-4.45-6-.24,5.75-6.09.23.47-21,6.82.39-.52,6,4.24-6.12Z"/><path class="cls-9" d="M1056.4,570.71a19.82,19.82,0,0,1-.17,2.54c-1.67.11-3.33.29-5,.52l-5,.71a3.6,3.6,0,0,0,1.19,1.69,3.07,3.07,0,0,0,1.94.63,4.15,4.15,0,0,0,1.28-.22,10.84,10.84,0,0,0,1.39-.55c.46-.22.9-.46,1.32-.71s.78-.48,1.08-.69l-.7,6.65a7.05,7.05,0,0,1-1.24.75,9.58,9.58,0,0,1-1.39.5,10,10,0,0,1-1.45.27,11.56,11.56,0,0,1-1.43.09,8.52,8.52,0,0,1-2.65-.39,7.86,7.86,0,0,1-2.18-1.11,8,8,0,0,1-1.71-1.68,9.73,9.73,0,0,1-1.21-2.11,11.83,11.83,0,0,1-.73-2.41,13.12,13.12,0,0,1-.25-2.58,14.83,14.83,0,0,1,.25-2.73,13.1,13.1,0,0,1,.75-2.62,10.73,10.73,0,0,1,1.28-2.33,9.18,9.18,0,0,1,1.79-1.89,8.37,8.37,0,0,1,2.32-1.26,8.73,8.73,0,0,1,2.87-.45,7.52,7.52,0,0,1,2.38.36,6.74,6.74,0,0,1,1.92,1,7,7,0,0,1,1.46,1.51,9.13,9.13,0,0,1,1,1.93,12.8,12.8,0,0,1,.6,2.21A14.3,14.3,0,0,1,1056.4,570.71Zm-5.86-.77a5,5,0,0,0-.08-.84,2.68,2.68,0,0,0-.29-.78,1.62,1.62,0,0,0-.52-.58,1.36,1.36,0,0,0-.81-.23,1.75,1.75,0,0,0-1,.32,3.05,3.05,0,0,0-.77.79,4.74,4.74,0,0,0-.52,1,7.32,7.32,0,0,0-.31,1l4.33-.41Z"/><path class="cls-9" d="M1074.52,568.42a9.44,9.44,0,0,1-.2,2.07,6,6,0,0,1-.62,1.71,5.76,5.76,0,0,1-1.1,1.43,9.89,9.89,0,0,1-1.62,1.26l3.48,6.22-6.59,1.28-2.25-6.24-1.82.06-.26,6.1h-6.3c0-2.23.09-4.45.14-6.65s.09-4.43.15-6.65c0-1.13,0-2.24.06-3.34s.06-2.22.12-3.34a16.15,16.15,0,0,1,2-.63,17.22,17.22,0,0,1,2-.39c.67-.09,1.34-.16,2-.19s1.4,0,2.12,0a11.26,11.26,0,0,1,3.23.46,8.52,8.52,0,0,1,2.76,1.38,7.06,7.06,0,0,1,1.93,2.3A6.84,6.84,0,0,1,1074.52,568.42Zm-6.56.47a3.67,3.67,0,0,0-.17-1.13,2.51,2.51,0,0,0-.5-.89,2.22,2.22,0,0,0-.82-.58,2.88,2.88,0,0,0-1.15-.21l-.57,0a5.17,5.17,0,0,0-.54.11l-.23,5.45h.35a5.22,5.22,0,0,0,1.28-.16,3.83,3.83,0,0,0,1.17-.5,2.69,2.69,0,0,0,.85-.86A2.32,2.32,0,0,0,1068,568.89Z"/><path class="cls-9" d="M1088.57,560.77l-1.2,15.41H1082l-.56-15.41Zm-1,19.93a3,3,0,0,1-.24,1.2,3.3,3.3,0,0,1-.67,1,3,3,0,0,1-1,.66,2.93,2.93,0,0,1-1.18.24,3,3,0,0,1-1.2-.24,3.13,3.13,0,0,1-1-.66,3.27,3.27,0,0,1-.66-1,3,3,0,0,1-.24-1.2,3.11,3.11,0,0,1,.24-1.21,3.08,3.08,0,0,1,.66-1,3.16,3.16,0,0,1,1-.67,2.84,2.84,0,0,1,1.2-.25,2.78,2.78,0,0,1,1.18.25,3,3,0,0,1,1,.67,3,3,0,0,1,.91,2.19Z"/><path class="cls-9" d="M603.44,600.23,598.08,620l-7.27.41-6.59-19.13,6.95-.65L594,611.8l2.72-12Z"/><path class="cls-9" d="M620.76,619.5l-7.27.94-.88-3.31h-3.34l-.73,3.31-7.47-.73,5.83-19.51,8.14-.41Zm-8.68-6.85-1.11-5.1-1.08,5.1Z"/><path class="cls-9" d="M638.23,606.64a9.44,9.44,0,0,1-.2,2.07,6.33,6.33,0,0,1-.62,1.71,6,6,0,0,1-1.1,1.44,9.89,9.89,0,0,1-1.62,1.26l3.48,6.21-6.59,1.29-2.26-6.24-1.81,0-.27,6.1H621c0-2.23.09-4.45.13-6.65s.1-4.43.16-6.65c0-1.13,0-2.24.06-3.34s.06-2.22.11-3.34a16.82,16.82,0,0,1,2-.63,17.22,17.22,0,0,1,2-.39c.66-.09,1.34-.16,2-.19s1.4-.05,2.12-.05a11.26,11.26,0,0,1,3.23.46,8.52,8.52,0,0,1,2.76,1.38,7.17,7.17,0,0,1,1.93,2.3A6.84,6.84,0,0,1,638.23,606.64Zm-6.56.47a3.67,3.67,0,0,0-.17-1.13,2.38,2.38,0,0,0-.5-.88,2.24,2.24,0,0,0-.82-.59,2.91,2.91,0,0,0-1.15-.21,5.44,5.44,0,0,0-.57,0l-.54.11-.24,5.45H628a5.22,5.22,0,0,0,1.28-.16,3.83,3.83,0,0,0,1.17-.5,2.69,2.69,0,0,0,.85-.86A2.32,2.32,0,0,0,631.67,607.11Z"/><path class="cls-9" d="M663.1,601.84l-6.47,7.7,6,10.08-6.8,1.2-4.45-6-.24,5.74-6.09.23.47-21,6.82.38-.52,6,4.24-6.12Z"/><path class="cls-9" d="M676,613l-.61,6.5-12.34,1,.47-20.92h7.62L670.08,613Z"/><path class="cls-9" d="M695.18,619.5l-7.26.94-.88-3.31H683.7l-.73,3.31-7.47-.73,5.83-19.51,8.14-.41Zm-8.67-6.85-1.11-5.1-1.09,5.1Z"/><path class="cls-9" d="M712.66,606.64a10.1,10.1,0,0,1-.2,2.07,6.33,6.33,0,0,1-.62,1.71,6,6,0,0,1-1.1,1.44,9.58,9.58,0,0,1-1.63,1.26l3.49,6.21L706,620.62l-2.26-6.24-1.81,0-.27,6.1h-6.3q.07-3.35.14-6.65t.16-6.65c0-1.13,0-2.24.06-3.34s0-2.22.11-3.34a17.26,17.26,0,0,1,2-.63,18.08,18.08,0,0,1,2-.39c.67-.09,1.35-.16,2-.19s1.39-.05,2.12-.05a11.26,11.26,0,0,1,3.23.46,8.52,8.52,0,0,1,2.76,1.38,7,7,0,0,1,1.92,2.3A6.73,6.73,0,0,1,712.66,606.64Zm-6.56.47a3.67,3.67,0,0,0-.17-1.13,2.38,2.38,0,0,0-.5-.88,2.24,2.24,0,0,0-.82-.59,2.91,2.91,0,0,0-1.15-.21,5.3,5.3,0,0,0-.57,0l-.54.11-.24,5.45h.35a5.3,5.3,0,0,0,1.29-.16,3.83,3.83,0,0,0,1.17-.5,2.79,2.79,0,0,0,.85-.86A2.32,2.32,0,0,0,706.1,607.11Z"/><path class="cls-9" d="M735,600.11l-.14,6.21-4.37.18L730,620.09l-6.18.32-.55-13.59-4.37.23.18-6.91Z"/><path class="cls-9" d="M743.52,600.14l-1,20-6.18.32-.59-19.86Z"/><path class="cls-9" d="M757.56,613l-.62,6.5-12.33,1,.47-20.92h7.61L751.61,613Z"/><path class="cls-9" d="M781.57,600.14q-.66,5.16-1.13,10.26c-.31,3.4-.61,6.83-.9,10.27l-6,.44.26-2.25a2.94,2.94,0,0,1-.68.58,3.56,3.56,0,0,1-.83.41,5.38,5.38,0,0,1-.9.22,5.68,5.68,0,0,1-.9,0,4.89,4.89,0,0,1-1.87-.39,6,6,0,0,1-1.61-1,7.36,7.36,0,0,1-1.32-1.45,10,10,0,0,1-1-1.74,9.76,9.76,0,0,1-.62-1.87,8.52,8.52,0,0,1-.21-1.84c0-.88,0-1.79,0-2.74s.1-1.88.18-2.83.21-1.88.35-2.81.32-1.82.53-2.67l3.59.16c1.2,0,2.4.07,3.59,0-.22.85-.44,1.7-.67,2.55s-.41,1.72-.59,2.58-.32,1.73-.42,2.6a21,21,0,0,0-.16,2.64c0,.2,0,.5,0,.88a6.25,6.25,0,0,0,.15,1.13,3.12,3.12,0,0,0,.38,1,.8.8,0,0,0,.72.42,1.31,1.31,0,0,0,1-.48,4.52,4.52,0,0,0,.78-1.28,12,12,0,0,0,.58-1.86c.16-.7.29-1.44.41-2.21s.2-1.54.27-2.32.12-1.51.15-2.2.06-1.31.07-1.86,0-1,0-1.27,0-.39,0-.57,0-.38,0-.57l1.89,0,1.89,0h1.47C780.57,600.18,781.07,600.17,781.57,600.14Z"/><path class="cls-9" d="M800.62,613.35c0,1.1,0,2.2,0,3.27s-.06,2.17-.11,3.26l-8.44-.14c.29-1.73.55-3.46.76-5.18a41.22,41.22,0,0,0,.32-5.22c0-.13,0-.34,0-.62s0-.6-.06-1-.07-.72-.12-1.1a8.83,8.83,0,0,0-.22-1,3.28,3.28,0,0,0-.34-.77.57.57,0,0,0-.48-.3,1.28,1.28,0,0,0-.84.29,2.34,2.34,0,0,0-.57.76,5,5,0,0,0-.36,1,11.34,11.34,0,0,0-.2,1.14q-.06.57-.09,1.08c0,.34,0,.61,0,.83,0,1.73-.08,3.44-.11,5.15s-.07,3.42-.12,5.16l-7.47.32q.28-5.16.56-10.28c.18-3.41.33-6.84.43-10.28l6.92-.35-.06,2.34a8.77,8.77,0,0,1,.89-.94,5.63,5.63,0,0,1,1-.75,5.56,5.56,0,0,1,1.15-.5,4.57,4.57,0,0,1,1.29-.18,5.3,5.3,0,0,1,2.18.41,4.93,4.93,0,0,1,1.61,1.11,6.39,6.39,0,0,1,1.13,1.66,11.82,11.82,0,0,1,.73,2.05,15.87,15.87,0,0,1,.42,2.26c.1.79.17,1.56.2,2.32s0,1.5,0,2.21Z"/><path class="cls-9" d="M819.71,617.48A6.72,6.72,0,0,1,818,619a11,11,0,0,1-2.17,1.07,13.83,13.83,0,0,1-2.37.64,13.58,13.58,0,0,1-2.31.21,10.43,10.43,0,0,1-3.92-.72,9.11,9.11,0,0,1-3.08-2,9.21,9.21,0,0,1-2-3.05,10,10,0,0,1-.73-3.87,12.91,12.91,0,0,1,.37-3.11,12.67,12.67,0,0,1,1-2.82,11.58,11.58,0,0,1,1.67-2.42A10.59,10.59,0,0,1,806.7,601a10.45,10.45,0,0,1,2.74-1.22,11.15,11.15,0,0,1,3.15-.43c.42,0,.87,0,1.35,0a13.93,13.93,0,0,1,1.43.17,10.72,10.72,0,0,1,1.38.35,5.72,5.72,0,0,1,1.23.54l-.41,5.59a7.58,7.58,0,0,0-1.69-.41,12.47,12.47,0,0,0-1.71-.11,7.39,7.39,0,0,0-2.19.31,5.16,5.16,0,0,0-1.77.93,4.43,4.43,0,0,0-1.19,1.54,4.84,4.84,0,0,0-.44,2.14,5.49,5.49,0,0,0,.2,1.47,3.82,3.82,0,0,0,.63,1.26,3.16,3.16,0,0,0,1,.89,3.07,3.07,0,0,0,1.45.33,4.69,4.69,0,0,0,1.15-.14,2.7,2.7,0,0,0,1-.5l.05-1.14-3.51-.06.17-4.4,4.37-.12c1.46,0,2.92-.08,4.39-.14Z"/><path class="cls-9" d="M837.17,608.93a19.86,19.86,0,0,1-.17,2.55c-1.67.1-3.33.28-5,.52l-5,.71a3.71,3.71,0,0,0,1.2,1.68,3.07,3.07,0,0,0,1.94.63,4.15,4.15,0,0,0,1.28-.22,10.72,10.72,0,0,0,1.38-.55c.46-.22.9-.46,1.32-.71s.78-.48,1.09-.69l-.71,6.65a6.42,6.42,0,0,1-1.23.75,8.53,8.53,0,0,1-1.39.5,12,12,0,0,1-1.45.28,14.18,14.18,0,0,1-1.43.08,8.63,8.63,0,0,1-2.66-.39,7.55,7.55,0,0,1-2.17-1.11,8.2,8.2,0,0,1-1.71-1.67,9.79,9.79,0,0,1-1.21-2.11,12.13,12.13,0,0,1-.74-2.42,13.92,13.92,0,0,1-.24-2.58,15.54,15.54,0,0,1,.24-2.72,13.7,13.7,0,0,1,.76-2.63,11.39,11.39,0,0,1,1.27-2.33,8.93,8.93,0,0,1,1.8-1.88,7.88,7.88,0,0,1,2.32-1.26,8.41,8.41,0,0,1,2.86-.46,7.43,7.43,0,0,1,2.38.36,6.49,6.49,0,0,1,1.92,1,7,7,0,0,1,1.47,1.51,9.1,9.1,0,0,1,1,1.93,11.23,11.23,0,0,1,.6,2.21A13.38,13.38,0,0,1,837.17,608.93Zm-5.86-.77a4.14,4.14,0,0,0-.09-.84,2.5,2.5,0,0,0-.28-.78,1.71,1.71,0,0,0-.52-.58,1.38,1.38,0,0,0-.81-.23,1.75,1.75,0,0,0-1,.32,3.05,3.05,0,0,0-.77.79,5.27,5.27,0,0,0-.53,1,7.2,7.2,0,0,0-.3,1l4.33-.41Z"/><path class="cls-9" d="M855.29,606.64a9.44,9.44,0,0,1-.2,2.07,6.33,6.33,0,0,1-.62,1.71,6,6,0,0,1-1.1,1.44,9.89,9.89,0,0,1-1.62,1.26l3.48,6.21-6.59,1.29-2.25-6.24-1.82,0-.26,6.1H838c0-2.23.09-4.45.14-6.65s.09-4.43.15-6.65c0-1.13,0-2.24.06-3.34s.06-2.22.12-3.34a16.15,16.15,0,0,1,2-.63,17.22,17.22,0,0,1,2-.39c.66-.09,1.34-.16,2-.19s1.4-.05,2.12-.05a11.26,11.26,0,0,1,3.23.46,8.52,8.52,0,0,1,2.76,1.38,7.17,7.17,0,0,1,1.93,2.3A6.84,6.84,0,0,1,855.29,606.64Zm-6.56.47a3.67,3.67,0,0,0-.17-1.13,2.38,2.38,0,0,0-.5-.88,2.24,2.24,0,0,0-.82-.59,2.91,2.91,0,0,0-1.15-.21,5.44,5.44,0,0,0-.57,0l-.54.11-.24,5.45h.36a5.22,5.22,0,0,0,1.28-.16,3.83,3.83,0,0,0,1.17-.5,2.69,2.69,0,0,0,.85-.86A2.32,2.32,0,0,0,848.73,607.11Z"/><path class="cls-9" d="M874.48,613.35c0,1.1,0,2.2,0,3.27s-.06,2.17-.11,3.26l-8.43-.14c.29-1.73.54-3.46.76-5.18a43.16,43.16,0,0,0,.32-5.22c0-.13,0-.34,0-.62s0-.6-.06-1-.07-.72-.13-1.1a6,6,0,0,0-.22-1,2.92,2.92,0,0,0-.33-.77.58.58,0,0,0-.48-.3,1.28,1.28,0,0,0-.84.29,2.34,2.34,0,0,0-.57.76,5,5,0,0,0-.36,1,9.08,9.08,0,0,0-.2,1.14q-.06.57-.09,1.08c0,.34,0,.61,0,.83,0,1.73-.09,3.44-.12,5.15s-.07,3.42-.11,5.16l-7.47.32q.28-5.16.56-10.28t.43-10.28l6.92-.35-.06,2.34a9.79,9.79,0,0,1,.88-.94,6.08,6.08,0,0,1,1-.75,5.34,5.34,0,0,1,1.15-.5,4.5,4.5,0,0,1,1.28-.18,5.35,5.35,0,0,1,2.19.41A4.93,4.93,0,0,1,872,600.9a6.13,6.13,0,0,1,1.12,1.66,11.06,11.06,0,0,1,.74,2.05,19.27,19.27,0,0,1,.42,2.26c.1.79.17,1.56.2,2.32s.05,1.5.05,2.21Z"/><path class="cls-9" d="M892.21,608.93a18.22,18.22,0,0,1-.18,2.55c-1.67.1-3.33.28-5,.52l-4.95.71a3.62,3.62,0,0,0,1.19,1.68,3.07,3.07,0,0,0,1.94.63,4.26,4.26,0,0,0,1.29-.22,11.32,11.32,0,0,0,1.38-.55c.46-.22.9-.46,1.32-.71s.78-.48,1.08-.69l-.7,6.65a6.5,6.5,0,0,1-1.24.75,8.42,8.42,0,0,1-1.38.5,12.35,12.35,0,0,1-1.45.28,14.21,14.21,0,0,1-1.44.08,8.52,8.52,0,0,1-2.65-.39,7.6,7.6,0,0,1-2.18-1.11,8.15,8.15,0,0,1-1.7-1.67,9.83,9.83,0,0,1-1.22-2.11,12.11,12.11,0,0,1-.73-2.42,13.12,13.12,0,0,1-.25-2.58,14.64,14.64,0,0,1,.25-2.72,13.68,13.68,0,0,1,.75-2.63,11,11,0,0,1,1.28-2.33,8.89,8.89,0,0,1,1.79-1.88,8,8,0,0,1,2.32-1.26,8.47,8.47,0,0,1,2.87-.46,7.48,7.48,0,0,1,2.38.36,6.61,6.61,0,0,1,1.92,1,6.75,6.75,0,0,1,1.46,1.51,8.7,8.7,0,0,1,1,1.93,11.23,11.23,0,0,1,.6,2.21A14.39,14.39,0,0,1,892.21,608.93Zm-5.86-.77a4.14,4.14,0,0,0-.09-.84,2.79,2.79,0,0,0-.29-.78,1.62,1.62,0,0,0-.52-.58,1.35,1.35,0,0,0-.8-.23,1.78,1.78,0,0,0-1,.32,3,3,0,0,0-.76.79,4.37,4.37,0,0,0-.53,1,7.32,7.32,0,0,0-.31,1l4.34-.41Z"/><path class="cls-9" d="M917.12,609.54a10.34,10.34,0,0,1-.31,2.57,9.94,9.94,0,0,1-.88,2.32,9.68,9.68,0,0,1-1.41,2,8.57,8.57,0,0,1-1.86,1.54,9.15,9.15,0,0,1-2.25,1,9,9,0,0,1-2.57.36,9.46,9.46,0,0,1-2.52-.34,9.57,9.57,0,0,1-2.23-.94,9.25,9.25,0,0,1-1.88-1.47,9.51,9.51,0,0,1-1.44-1.9,10.13,10.13,0,0,1-.92-2.25,9.44,9.44,0,0,1-.33-2.51,10,10,0,0,1,.31-2.5,10.13,10.13,0,0,1,.88-2.3,9.91,9.91,0,0,1,1.4-2,9.17,9.17,0,0,1,1.84-1.57,9,9,0,0,1,2.2-1,8.66,8.66,0,0,1,2.51-.36,10.84,10.84,0,0,1,3.87.66,8.2,8.2,0,0,1,4.91,4.84A10.41,10.41,0,0,1,917.12,609.54Zm-6.5.38a4.14,4.14,0,0,0-.18-1.22,3.26,3.26,0,0,0-.54-1.05,2.63,2.63,0,0,0-.87-.75,2.47,2.47,0,0,0-1.19-.29,3.08,3.08,0,0,0-1.24.25,2.87,2.87,0,0,0-.93.68,3.27,3.27,0,0,0-.59,1,3.61,3.61,0,0,0-.2,1.23,4.74,4.74,0,0,0,.17,1.23,3.8,3.8,0,0,0,.53,1.11,2.81,2.81,0,0,0,.87.81,2.39,2.39,0,0,0,1.21.3,2.79,2.79,0,0,0,1.24-.27,2.87,2.87,0,0,0,.93-.73,3.31,3.31,0,0,0,.58-1.06A3.77,3.77,0,0,0,910.62,609.92Z"/><path class="cls-9" d="M935.86,617.48a6.89,6.89,0,0,1-1.7,1.51,11.23,11.23,0,0,1-2.17,1.07,13.83,13.83,0,0,1-2.37.64,13.6,13.6,0,0,1-2.32.21,10.38,10.38,0,0,1-3.91-.72,9.06,9.06,0,0,1-5.11-5.05,10,10,0,0,1-.73-3.87,13.43,13.43,0,0,1,.36-3.11,13.2,13.2,0,0,1,1.05-2.82,11.54,11.54,0,0,1,1.66-2.42,10.9,10.9,0,0,1,2.23-1.89,10.53,10.53,0,0,1,2.73-1.22,11.22,11.22,0,0,1,3.16-.43c.42,0,.87,0,1.35,0a13.74,13.74,0,0,1,1.42.17,10.47,10.47,0,0,1,1.39.35,5.72,5.72,0,0,1,1.23.54l-.41,5.59a7.58,7.58,0,0,0-1.69-.41,12.47,12.47,0,0,0-1.71-.11,7.39,7.39,0,0,0-2.19.31,5.16,5.16,0,0,0-1.77.93,4.46,4.46,0,0,0-1.2,1.54,5,5,0,0,0-.43,2.14,5.12,5.12,0,0,0,.2,1.47,3.81,3.81,0,0,0,.62,1.26,3.31,3.31,0,0,0,1,.89,3.07,3.07,0,0,0,1.45.33,4.69,4.69,0,0,0,1.15-.14,2.59,2.59,0,0,0,1-.5l.06-1.14-3.51-.06.17-4.4c1.46,0,2.91-.09,4.37-.12s2.92-.08,4.39-.14Z"/><path class="cls-9" d="M956.69,599.93c-.06.92-.11,1.83-.16,2.73s-.12,1.8-.19,2.72l-6.21.32v1.85h5.39l-.3,4.54-5.12.15,0,8.08-7.42.15.47-20.54Z"/><path class="cls-9" d="M974.1,619.5l-7.26.94-.88-3.31h-3.34l-.73,3.31-7.47-.73,5.83-19.51,8.14-.41Zm-8.67-6.85-1.11-5.1-1.08,5.1Z"/><path class="cls-9" d="M992.59,613.35c0,1.1,0,2.2,0,3.27s-.06,2.17-.11,3.26l-8.43-.14c.29-1.73.54-3.46.76-5.18a43.16,43.16,0,0,0,.32-5.22c0-.13,0-.34,0-.62s0-.6-.06-1-.07-.72-.13-1.1a6,6,0,0,0-.22-1,2.92,2.92,0,0,0-.33-.77.58.58,0,0,0-.48-.3,1.28,1.28,0,0,0-.84.29,2.34,2.34,0,0,0-.57.76,4.46,4.46,0,0,0-.36,1,9.08,9.08,0,0,0-.2,1.14q-.06.57-.09,1.08c0,.34,0,.61,0,.83,0,1.73-.09,3.44-.12,5.15s-.07,3.42-.11,5.16l-7.47.32q.28-5.16.56-10.28t.43-10.28l6.92-.35-.06,2.34a9.79,9.79,0,0,1,.88-.94,6.08,6.08,0,0,1,1-.75,5.34,5.34,0,0,1,1.15-.5,4.5,4.5,0,0,1,1.28-.18,5.35,5.35,0,0,1,2.19.41,4.93,4.93,0,0,1,1.61,1.11,6.13,6.13,0,0,1,1.12,1.66,11.06,11.06,0,0,1,.74,2.05,19.27,19.27,0,0,1,.42,2.26c.1.79.16,1.56.2,2.32s.05,1.5.05,2.21Z"/><path class="cls-9" d="M1011.68,617.48A6.89,6.89,0,0,1,1010,619a11.23,11.23,0,0,1-2.17,1.07,13.83,13.83,0,0,1-2.37.64,13.6,13.6,0,0,1-2.32.21,10.38,10.38,0,0,1-3.91-.72,9.06,9.06,0,0,1-5.11-5.05,10,10,0,0,1-.73-3.87,13.43,13.43,0,0,1,.36-3.11,13.2,13.2,0,0,1,1-2.82,11.54,11.54,0,0,1,1.66-2.42,10.9,10.9,0,0,1,2.23-1.89,10.53,10.53,0,0,1,2.73-1.22,11.22,11.22,0,0,1,3.16-.43c.42,0,.87,0,1.35,0a13.74,13.74,0,0,1,1.42.17,10.47,10.47,0,0,1,1.39.35,5.72,5.72,0,0,1,1.23.54l-.41,5.59a7.58,7.58,0,0,0-1.69-.41,12.47,12.47,0,0,0-1.71-.11,7.39,7.39,0,0,0-2.19.31,5.16,5.16,0,0,0-1.77.93,4.46,4.46,0,0,0-1.2,1.54,5,5,0,0,0-.44,2.14,5.12,5.12,0,0,0,.21,1.47,3.81,3.81,0,0,0,.62,1.26,3.31,3.31,0,0,0,1,.89,3.07,3.07,0,0,0,1.45.33,4.69,4.69,0,0,0,1.15-.14,2.59,2.59,0,0,0,1-.5l.06-1.14-3.51-.06.17-4.4c1.46,0,2.91-.09,4.37-.12s2.92-.08,4.39-.14Z"/><path class="cls-9" d="M1036.83,613.35c0,1.1,0,2.2,0,3.27s-.06,2.17-.11,3.26l-8.43-.14c.29-1.73.54-3.46.76-5.18a43.16,43.16,0,0,0,.32-5.22c0-.13,0-.34,0-.62s0-.6,0-1-.08-.72-.13-1.1a7.16,7.16,0,0,0-.22-1,2.92,2.92,0,0,0-.33-.77.59.59,0,0,0-.48-.3,1.28,1.28,0,0,0-.84.29,2.51,2.51,0,0,0-.58.76,4.45,4.45,0,0,0-.35,1,9.08,9.08,0,0,0-.2,1.14c-.05.38-.07.74-.09,1.08s0,.61,0,.83c0,1.73-.09,3.44-.12,5.15s-.07,3.42-.12,5.16l-7.47.32q.3-5.16.57-10.28t.43-10.28l6.91-.35,0,2.34a8.67,8.67,0,0,1,.88-.94,6.08,6.08,0,0,1,1-.75,5.13,5.13,0,0,1,1.15-.5,4.45,4.45,0,0,1,1.28-.18,5.27,5.27,0,0,1,2.18.41,4.73,4.73,0,0,1,1.61,1.11,6.16,6.16,0,0,1,1.13,1.66,11.06,11.06,0,0,1,.74,2.05,19.27,19.27,0,0,1,.42,2.26c.1.79.16,1.56.2,2.32s0,1.5,0,2.21Z"/><path class="cls-9" d="M1056.31,609.54a10.34,10.34,0,0,1-.31,2.57,9.94,9.94,0,0,1-.88,2.32,9.68,9.68,0,0,1-1.41,2,8.57,8.57,0,0,1-1.86,1.54,9.15,9.15,0,0,1-2.25,1,9,9,0,0,1-2.58.36,9.45,9.45,0,0,1-2.51-.34,9.57,9.57,0,0,1-2.23-.94,9,9,0,0,1-1.88-1.47,9.15,9.15,0,0,1-1.44-1.9,9.67,9.67,0,0,1-.92-2.25,9.44,9.44,0,0,1-.33-2.51,10,10,0,0,1,.31-2.5,10.13,10.13,0,0,1,.88-2.3,9.91,9.91,0,0,1,1.4-2,9.17,9.17,0,0,1,1.84-1.57,9,9,0,0,1,2.2-1,8.61,8.61,0,0,1,2.51-.36,10.88,10.88,0,0,1,3.87.66,8.2,8.2,0,0,1,4.91,4.84A10.62,10.62,0,0,1,1056.31,609.54Zm-6.5.38a3.84,3.84,0,0,0-.19-1.22,3.24,3.24,0,0,0-.53-1.05,2.73,2.73,0,0,0-.87-.75,2.48,2.48,0,0,0-1.2-.29,3.07,3.07,0,0,0-1.23.25,2.87,2.87,0,0,0-.93.68,3.09,3.09,0,0,0-.59,1,3.61,3.61,0,0,0-.2,1.23,4.35,4.35,0,0,0,.17,1.23,3.56,3.56,0,0,0,.53,1.11,2.81,2.81,0,0,0,.87.81,2.39,2.39,0,0,0,1.21.3,2.79,2.79,0,0,0,1.24-.27,2.87,2.87,0,0,0,.93-.73,3.31,3.31,0,0,0,.58-1.06A3.77,3.77,0,0,0,1049.81,609.92Z"/><path class="cls-9" d="M1075.19,601.84l-6.47,7.7,6,10.08-6.8,1.2-4.45-6-.24,5.74-6.09.23.47-21,6.82.38-.52,6,4.24-6.12Z"/><path class="cls-9" d="M1098.84,617.48a6.89,6.89,0,0,1-1.7,1.51,11.23,11.23,0,0,1-2.17,1.07,13.81,13.81,0,0,1-4.69.85,10.38,10.38,0,0,1-3.91-.72,9.06,9.06,0,0,1-5.11-5.05,10,10,0,0,1-.73-3.87,13.43,13.43,0,0,1,.36-3.11,12.69,12.69,0,0,1,1-2.82,11.54,11.54,0,0,1,1.66-2.42,10.9,10.9,0,0,1,2.23-1.89,10.53,10.53,0,0,1,2.73-1.22,11.17,11.17,0,0,1,3.16-.43c.42,0,.87,0,1.34,0a13.61,13.61,0,0,1,1.43.17,10.47,10.47,0,0,1,1.39.35,5.72,5.72,0,0,1,1.23.54l-.41,5.59a7.58,7.58,0,0,0-1.69-.41,12.57,12.57,0,0,0-1.71-.11,7.39,7.39,0,0,0-2.19.31,5.16,5.16,0,0,0-1.77.93,4.46,4.46,0,0,0-1.2,1.54,5,5,0,0,0-.44,2.14,5.12,5.12,0,0,0,.21,1.47,3.62,3.62,0,0,0,.62,1.26,3.31,3.31,0,0,0,1,.89,3.06,3.06,0,0,0,1.44.33,4.64,4.64,0,0,0,1.15-.14,2.57,2.57,0,0,0,1-.5l.06-1.14-3.52-.06.18-4.4c1.46,0,2.91-.09,4.37-.12s2.92-.08,4.39-.14Z"/><path class="cls-9" d="M1117.12,606.64a10.1,10.1,0,0,1-.2,2.07,6.33,6.33,0,0,1-.62,1.71,6.26,6.26,0,0,1-1.1,1.44,9.58,9.58,0,0,1-1.63,1.26l3.49,6.21-6.59,1.29-2.26-6.24-1.82,0-.26,6.1h-6.3q.08-3.35.14-6.65c0-2.21.1-4.43.15-6.65,0-1.13,0-2.24.06-3.34s.06-2.22.12-3.34a16.69,16.69,0,0,1,2-.63,17.64,17.64,0,0,1,2-.39c.67-.09,1.35-.16,2-.19s1.39-.05,2.11-.05a11.16,11.16,0,0,1,3.23.46,8.47,8.47,0,0,1,2.77,1.38,7,7,0,0,1,1.92,2.3A6.73,6.73,0,0,1,1117.12,606.64Zm-6.57.47a3.67,3.67,0,0,0-.16-1.13,2.53,2.53,0,0,0-.5-.88,2.33,2.33,0,0,0-.82-.59,2.91,2.91,0,0,0-1.15-.21,5.17,5.17,0,0,0-.57,0l-.55.11-.23,5.45h.35a5.16,5.16,0,0,0,1.28-.16,3.79,3.79,0,0,0,1.18-.5,2.9,2.9,0,0,0,.85-.86A2.41,2.41,0,0,0,1110.55,607.11Z"/><path class="cls-9" d="M1134.05,600.61l-.41.88c-.14.29-.27.59-.41.9a8.59,8.59,0,0,1,2.21,3.05,10.23,10.23,0,0,1,.78,4.1,10.34,10.34,0,0,1-.31,2.57,9.94,9.94,0,0,1-.88,2.32,9.68,9.68,0,0,1-1.41,2,8.57,8.57,0,0,1-1.86,1.54,9.15,9.15,0,0,1-2.25,1,9,9,0,0,1-2.58.36h-.12l-.85,2.34-5.85-2.28.85-2.17a9.14,9.14,0,0,1-1.4-1.45,9,9,0,0,1-1-1.74,9.85,9.85,0,0,1-.67-2,9.51,9.51,0,0,1-.23-2.15,10.49,10.49,0,0,1,.3-2.5,10.16,10.16,0,0,1,.89-2.3,9.52,9.52,0,0,1,1.4-2,9.05,9.05,0,0,1,4-2.6,8.61,8.61,0,0,1,2.51-.36q.43,0,.87,0l.85.08.88-1.72ZM1124,609.78a5,5,0,0,0,.08.85,5.91,5.91,0,0,0,.24.82l2.09-4.78a2.61,2.61,0,0,0-1,.37,2.48,2.48,0,0,0-.75.69,3.09,3.09,0,0,0-.48.94A3.68,3.68,0,0,0,1124,609.78Zm5.74.14a3.74,3.74,0,0,0-.32-1.55l-2.19,4.83a2.5,2.5,0,0,0,1-.38,3,3,0,0,0,.8-.75,3.47,3.47,0,0,0,.5-1A4,4,0,0,0,1129.71,609.92Z"/><path class="cls-9" d="M1155.22,613.35c0,1.1,0,2.2,0,3.27s-.06,2.17-.11,3.26l-8.44-.14c.3-1.73.55-3.46.77-5.18a43.16,43.16,0,0,0,.32-5.22c0-.13,0-.34,0-.62s0-.6-.06-1-.07-.72-.12-1.1a7.16,7.16,0,0,0-.22-1,2.91,2.91,0,0,0-.34-.77.56.56,0,0,0-.47-.3,1.26,1.26,0,0,0-.84.29,2.36,2.36,0,0,0-.58.76,5,5,0,0,0-.36,1,11.29,11.29,0,0,0-.19,1.14,10.71,10.71,0,0,0-.09,1.08c0,.34,0,.61,0,.83-.05,1.73-.09,3.44-.12,5.15s-.07,3.42-.12,5.16l-7.47.32c.2-3.44.38-6.87.57-10.28s.32-6.84.43-10.28l6.91-.35-.06,2.34a9.89,9.89,0,0,1,.89-.94,6.08,6.08,0,0,1,1-.75,5.13,5.13,0,0,1,1.15-.5,4.45,4.45,0,0,1,1.28-.18,5.27,5.27,0,0,1,2.18.41,4.83,4.83,0,0,1,1.61,1.11,6.16,6.16,0,0,1,1.13,1.66,11,11,0,0,1,.73,2.05,17.4,17.4,0,0,1,.43,2.26c.1.79.16,1.56.2,2.32s0,1.5,0,2.21Z"/><path class="cls-9" d="M1174.77,613.35c0,1.1,0,2.2,0,3.27s-.06,2.17-.11,3.26l-8.44-.14c.29-1.73.55-3.46.76-5.18a41.22,41.22,0,0,0,.32-5.22c0-.13,0-.34,0-.62s0-.6-.06-1-.07-.72-.12-1.1a8.83,8.83,0,0,0-.22-1,3.28,3.28,0,0,0-.34-.77.57.57,0,0,0-.48-.3,1.28,1.28,0,0,0-.84.29,2.34,2.34,0,0,0-.57.76,5,5,0,0,0-.36,1,11.34,11.34,0,0,0-.2,1.14q-.06.57-.09,1.08c0,.34,0,.61,0,.83,0,1.73-.08,3.44-.11,5.15s-.07,3.42-.12,5.16l-7.47.32q.29-5.16.56-10.28c.18-3.41.33-6.84.43-10.28l6.92-.35-.06,2.34a8.77,8.77,0,0,1,.89-.94,5.63,5.63,0,0,1,1-.75,5.56,5.56,0,0,1,1.15-.5,4.57,4.57,0,0,1,1.29-.18,5.3,5.3,0,0,1,2.18.41,4.93,4.93,0,0,1,1.61,1.11,6.39,6.39,0,0,1,1.13,1.66,11.82,11.82,0,0,1,.73,2.05,15.87,15.87,0,0,1,.42,2.26c.1.79.17,1.56.2,2.32s0,1.5,0,2.21Z"/><path class="cls-9" d="M1192.5,608.93a18.22,18.22,0,0,1-.18,2.55c-1.67.1-3.33.28-5,.52l-4.95.71a3.62,3.62,0,0,0,1.19,1.68,3.1,3.1,0,0,0,2,.63,4.2,4.2,0,0,0,1.28-.22,11.32,11.32,0,0,0,1.38-.55c.46-.22.9-.46,1.32-.71s.78-.48,1.08-.69l-.7,6.65a6.2,6.2,0,0,1-1.24.75,8.1,8.1,0,0,1-1.38.5,12,12,0,0,1-1.45.28,14.21,14.21,0,0,1-1.44.08,8.57,8.57,0,0,1-2.65-.39,7.55,7.55,0,0,1-2.17-1.11,8.2,8.2,0,0,1-1.71-1.67,10.27,10.27,0,0,1-1.22-2.11,12.81,12.81,0,0,1-.73-2.42,13.93,13.93,0,0,1-.25-2.58,15.55,15.55,0,0,1,.25-2.72,13.7,13.7,0,0,1,.76-2.63,10.93,10.93,0,0,1,1.27-2.33,8.89,8.89,0,0,1,1.79-1.88,7.94,7.94,0,0,1,2.33-1.26,8.41,8.41,0,0,1,2.86-.46,7.48,7.48,0,0,1,2.38.36,6.49,6.49,0,0,1,1.92,1,6.75,6.75,0,0,1,1.46,1.51,8.7,8.7,0,0,1,1,1.93,11.23,11.23,0,0,1,.6,2.21A14.39,14.39,0,0,1,1192.5,608.93Zm-5.86-.77a4.14,4.14,0,0,0-.09-.84,2.51,2.51,0,0,0-.29-.78,1.69,1.69,0,0,0-.51-.58,1.41,1.41,0,0,0-.81-.23,1.73,1.73,0,0,0-1,.32,2.9,2.9,0,0,0-.77.79,4.78,4.78,0,0,0-.53,1,7.32,7.32,0,0,0-.31,1l4.34-.41Z"/><path class="cls-9" d="M1213.17,599.93c-.06.92-.12,1.83-.16,2.73s-.12,1.8-.19,2.72l-6.22.32v1.85h5.4l-.3,4.54-5.12.15,0,8.08-7.41.15.47-20.54Z"/><path class="cls-9" d="M1231.11,606.64a9.44,9.44,0,0,1-.2,2.07,6.33,6.33,0,0,1-.62,1.71,6,6,0,0,1-1.1,1.44,9.89,9.89,0,0,1-1.62,1.26l3.48,6.21-6.59,1.29-2.25-6.24-1.82,0-.27,6.1h-6.29c.05-2.23.09-4.45.14-6.65s.09-4.43.15-6.65c0-1.13,0-2.24.06-3.34s.06-2.22.11-3.34a16.82,16.82,0,0,1,2-.63,17.22,17.22,0,0,1,2-.39c.66-.09,1.34-.16,2-.19s1.4-.05,2.12-.05a11.26,11.26,0,0,1,3.23.46,8.52,8.52,0,0,1,2.76,1.38,7.17,7.17,0,0,1,1.93,2.3A6.84,6.84,0,0,1,1231.11,606.64Zm-6.56.47a3.67,3.67,0,0,0-.17-1.13,2.38,2.38,0,0,0-.5-.88,2.24,2.24,0,0,0-.82-.59,2.91,2.91,0,0,0-1.15-.21,5.44,5.44,0,0,0-.57,0l-.54.11-.24,5.45h.36a5.22,5.22,0,0,0,1.28-.16,3.83,3.83,0,0,0,1.17-.5,2.69,2.69,0,0,0,.85-.86A2.32,2.32,0,0,0,1224.55,607.11Z"/><path class="cls-9" d="M1248,600.61l-.41.88-.41.9a8.47,8.47,0,0,1,2.21,3.05,10.23,10.23,0,0,1,.78,4.1,10.83,10.83,0,0,1-.3,2.57,10.42,10.42,0,0,1-.89,2.32,9.68,9.68,0,0,1-1.41,2,8.57,8.57,0,0,1-1.86,1.54,9.15,9.15,0,0,1-2.25,1,9,9,0,0,1-2.57.36h-.12l-.85,2.34-5.86-2.28.85-2.17a9.08,9.08,0,0,1-1.39-1.45,9.58,9.58,0,0,1-1-1.74,9.85,9.85,0,0,1-.67-2,10.12,10.12,0,0,1-.23-2.15,10,10,0,0,1,.31-2.5,10.13,10.13,0,0,1,.88-2.3,10.33,10.33,0,0,1,1.4-2,9.17,9.17,0,0,1,1.84-1.57,8.93,8.93,0,0,1,2.21-1,8.54,8.54,0,0,1,2.5-.36q.43,0,.87,0l.86.08.88-1.72ZM1238,609.78a4.14,4.14,0,0,0,.08.85,4,4,0,0,0,.24.82l2.08-4.78a2.56,2.56,0,0,0-1,.37,2.64,2.64,0,0,0-.76.69,3.62,3.62,0,0,0-.48.94A3.68,3.68,0,0,0,1238,609.78Zm5.74.14a3.91,3.91,0,0,0-.32-1.55l-2.2,4.83a2.5,2.5,0,0,0,1-.38,2.86,2.86,0,0,0,.8-.75,3.24,3.24,0,0,0,.5-1A4,4,0,0,0,1243.71,609.92Z"/><path class="cls-9" d="M1267.54,608.93a19.86,19.86,0,0,1-.17,2.55c-1.67.1-3.33.28-5,.52l-5,.71a3.71,3.71,0,0,0,1.2,1.68,3.07,3.07,0,0,0,1.94.63,4.15,4.15,0,0,0,1.28-.22,11.45,11.45,0,0,0,1.39-.55c.45-.22.89-.46,1.31-.71s.78-.48,1.09-.69l-.71,6.65a6.42,6.42,0,0,1-1.23.75,8.53,8.53,0,0,1-1.39.5,12,12,0,0,1-1.45.28,14,14,0,0,1-1.43.08,8.52,8.52,0,0,1-2.65-.39,7.47,7.47,0,0,1-2.18-1.11,8.2,8.2,0,0,1-1.71-1.67,10.23,10.23,0,0,1-1.21-2.11,12.11,12.11,0,0,1-.73-2.42,13.12,13.12,0,0,1-.25-2.58,14.64,14.64,0,0,1,.25-2.72,13,13,0,0,1,.75-2.63,11.39,11.39,0,0,1,1.27-2.33,8.93,8.93,0,0,1,1.8-1.88,7.88,7.88,0,0,1,2.32-1.26,8.45,8.45,0,0,1,2.86-.46,7.43,7.43,0,0,1,2.38.36,6.49,6.49,0,0,1,1.92,1,7,7,0,0,1,1.47,1.51,9.1,9.1,0,0,1,1,1.93,11.23,11.23,0,0,1,.6,2.21A13.38,13.38,0,0,1,1267.54,608.93Zm-5.86-.77a4.14,4.14,0,0,0-.09-.84,2.5,2.5,0,0,0-.28-.78,1.71,1.71,0,0,0-.52-.58,1.38,1.38,0,0,0-.81-.23,1.75,1.75,0,0,0-1,.32,3.05,3.05,0,0,0-.77.79,5.27,5.27,0,0,0-.53,1,8.78,8.78,0,0,0-.3,1l4.33-.41Z"/><path class="cls-9" d="M1285.66,606.64a9.44,9.44,0,0,1-.2,2.07,6.33,6.33,0,0,1-.62,1.71,6,6,0,0,1-1.1,1.44,9.89,9.89,0,0,1-1.62,1.26l3.48,6.21-6.59,1.29-2.25-6.24-1.82,0-.26,6.1h-6.3c0-2.23.09-4.45.14-6.65s.09-4.43.15-6.65c0-1.13,0-2.24.06-3.34s.06-2.22.12-3.34a16.15,16.15,0,0,1,2-.63,17.22,17.22,0,0,1,2-.39c.67-.09,1.34-.16,2-.19s1.4-.05,2.12-.05a11.26,11.26,0,0,1,3.23.46,8.52,8.52,0,0,1,2.76,1.38,7.17,7.17,0,0,1,1.93,2.3A6.84,6.84,0,0,1,1285.66,606.64Zm-6.56.47a3.67,3.67,0,0,0-.17-1.13,2.38,2.38,0,0,0-.5-.88,2.24,2.24,0,0,0-.82-.59,2.88,2.88,0,0,0-1.15-.21,5.44,5.44,0,0,0-.57,0l-.54.11-.23,5.45h.35a5.22,5.22,0,0,0,1.28-.16,3.83,3.83,0,0,0,1.17-.5,2.69,2.69,0,0,0,.85-.86A2.32,2.32,0,0,0,1279.1,607.11Z"/><path class="cls-9" d="M1293.85,599l-1.2,15.41h-5.42l-.56-15.41Zm-1,19.92a2.84,2.84,0,0,1-.25,1.2,3.09,3.09,0,0,1-.66,1,3,3,0,0,1-1,.66,2.93,2.93,0,0,1-1.18.24,3,3,0,0,1-1.2-.24,3.13,3.13,0,0,1-1-.66,3.09,3.09,0,0,1-.66-1,3,3,0,0,1-.24-1.2,3.06,3.06,0,0,1,.24-1.2,2.87,2.87,0,0,1,.66-1,3.34,3.34,0,0,1,1-.67,2.84,2.84,0,0,1,1.2-.25,2.78,2.78,0,0,1,1.18.25,3.22,3.22,0,0,1,1,.67,2.87,2.87,0,0,1,.66,1A2.9,2.9,0,0,1,1292.88,618.92Z"/></g></svg>